<?xml version="1.0" encoding="UTF-8"?>
<svg version="1.1" xmlns="http://www.w3.org/2000/svg" width="677" height="369">
<path d="M0 0 C2.4375 0.1875 2.4375 0.1875 3.4375 1.1875 C3.3075592 7.16477698 0.96581107 11.32064994 -1.9921875 16.44140625 C-3.62506625 19.29691312 -5.09143151 22.24536303 -6.5625 25.1875 C3.0075 24.8575 12.5775 24.5275 22.4375 24.1875 C18.9725 18.2475 18.9725 18.2475 15.4375 12.1875 C12.4375 6.1875 12.4375 6.1875 12.6875 3.375 C13.4375 1.1875 13.4375 1.1875 14.4375 0.1875 C16.6796875 -0.37890625 16.6796875 -0.37890625 19.4375 0.1875 C21.56958081 2.62679938 23.02617463 5.40991227 24.5625 8.25 C25.20638672 9.37825195 25.20638672 9.37825195 25.86328125 10.52929688 C28.36537048 14.97531697 30.51735499 19.46243728 32.4375 24.1875 C33.68623901 24.20937378 33.68623901 24.20937378 34.96020508 24.23168945 C38.05239653 24.2927863 41.14392082 24.36694556 44.2355957 24.44995117 C46.2304063 24.49951319 48.22557257 24.53401133 50.22070312 24.56835938 C51.47431641 24.60380859 52.72792969 24.63925781 54.01953125 24.67578125 C55.17686768 24.70196533 56.3342041 24.72814941 57.52661133 24.75512695 C60.4375 25.1875 60.4375 25.1875 62.2878418 26.50854492 C64.18865571 29.28448403 64.26644564 31.88044909 64.4375 35.1875 C63.4023201 39.06942461 62.85375138 39.90999908 59.4375 42.1875 C58.4475 42.1875 57.4575 42.1875 56.4375 42.1875 C56.33179688 43.37085938 56.22609375 44.55421875 56.1171875 45.7734375 C55.36314355 52.53337536 53.94061678 59.15720432 52.5625 65.8125 C52.30597656 67.09640625 52.04945313 68.3803125 51.78515625 69.703125 C49.04236445 83.01738068 49.04236445 83.01738068 46.4375 87.1875 C39.84162059 91.1669393 32.9524998 90.6210941 25.4375 90.5859375 C24.07421717 90.58796192 22.7109354 90.59087641 21.34765625 90.59463501 C18.49989442 90.59904112 15.65241619 90.59268316 12.8046875 90.57861328 C9.16993632 90.56152197 5.53584989 90.57137245 1.90112305 90.58933067 C-0.91118298 90.60021525 -3.72333361 90.59670091 -6.53564453 90.5889473 C-8.52246537 90.58599695 -10.50929246 90.59504497 -12.49609375 90.6043396 C-25.89383541 90.50033431 -25.89383541 90.50033431 -31.37231445 85.55322266 C-33.1788141 81.9624572 -33.84691807 78.26482627 -34.60546875 74.3359375 C-34.77879227 73.48069489 -34.95211578 72.62545227 -35.13069153 71.74429321 C-35.68029093 69.01889357 -36.2150607 66.29081064 -36.75 63.5625 C-37.12082645 61.71856508 -37.49256109 59.87481255 -37.86523438 58.03125 C-40.5625 44.59059141 -40.5625 44.59059141 -40.5625 42.1875 C-41.531875 41.878125 -42.50125 41.56875 -43.5 41.25 C-46.5625 40.1875 -46.5625 40.1875 -47.5625 39.1875 C-47.80078125 36.7890625 -47.80078125 36.7890625 -47.875 33.8125 C-47.91238281 32.83539063 -47.94976562 31.85828125 -47.98828125 30.8515625 C-47.5625 28.1875 -47.5625 28.1875 -45.9140625 26.52441406 C-42.88109421 24.80010609 -40.98032264 24.94872239 -37.51171875 25.1328125 C-25.70132161 26.10654202 -25.70132161 26.10654202 -14.69482422 23.02246094 C-11.71814959 19.64207411 -10.71439278 15.44323775 -9.5625 11.1875 C-8.6799007 9.42967689 -7.74813297 7.69489061 -6.75 6 C-6.37230469 5.30519531 -5.99460938 4.61039063 -5.60546875 3.89453125 C-3.96619575 1.21152638 -3.20949403 0.23484103 0 0 Z M-17.5625 32.1875 C-17.5625 32.8475 -17.5625 33.5075 -17.5625 34.1875 C-16.9025 33.8575 -16.2425 33.5275 -15.5625 33.1875 C-16.2225 32.8575 -16.8825 32.5275 -17.5625 32.1875 Z M32.4375 32.1875 C32.1075 32.8475 31.7775 33.5075 31.4375 34.1875 C32.4275 33.8575 33.4175 33.5275 34.4375 33.1875 C33.7775 32.8575 33.1175 32.5275 32.4375 32.1875 Z M-31.5625 42.1875 C-31.77220559 46.32843698 -31.77220559 46.32843698 -30.5625 50.1875 C-28.5825 50.1875 -26.6025 50.1875 -24.5625 50.1875 C-24.8925 47.5475 -25.2225 44.9075 -25.5625 42.1875 C-27.5425 42.1875 -29.5225 42.1875 -31.5625 42.1875 Z M-18.5625 42.1875 C-18.2325 44.4975 -17.9025 46.8075 -17.5625 49.1875 C-15.2525 49.5175 -12.9425 49.8475 -10.5625 50.1875 C-10.5625 47.5475 -10.5625 44.9075 -10.5625 42.1875 C-13.2025 42.1875 -15.8425 42.1875 -18.5625 42.1875 Z M-3.5625 42.1875 C-3.60491723 44.52044775 -3.60342937 46.85452567 -3.5625 49.1875 C-2.37825674 50.60327477 -2.37825674 50.60327477 1 50.25 C2.7015625 50.2190625 2.7015625 50.2190625 4.4375 50.1875 C4.4375 47.5475 4.4375 44.9075 4.4375 42.1875 C1.7975 42.1875 -0.8425 42.1875 -3.5625 42.1875 Z M11.4375 42.1875 C11.4375 44.4975 11.4375 46.8075 11.4375 49.1875 C13.7475 49.5175 16.0575 49.8475 18.4375 50.1875 C19.79189668 47.47870665 19.50251451 45.17816732 19.4375 42.1875 C16.7975 42.1875 14.1575 42.1875 11.4375 42.1875 Z M26.4375 42.1875 C26.4375 44.8275 26.4375 47.4675 26.4375 50.1875 C29.0775 50.1875 31.7175 50.1875 34.4375 50.1875 C34.4375 47.5475 34.4375 44.9075 34.4375 42.1875 C31.7975 42.1875 29.1575 42.1875 26.4375 42.1875 Z M41.4375 42.1875 C41.4375 44.4975 41.4375 46.8075 41.4375 49.1875 C43.9125 49.6825 43.9125 49.6825 46.4375 50.1875 C47.0975 47.5475 47.7575 44.9075 48.4375 42.1875 C46.1275 42.1875 43.8175 42.1875 41.4375 42.1875 Z M-2.5625 56.1875 C-2.2325 59.1575 -1.9025 62.1275 -1.5625 65.1875 C0.4175 65.1875 2.3975 65.1875 4.4375 65.1875 C4.4375 62.5475 4.4375 59.9075 4.4375 57.1875 C2.1275 56.8575 -0.1825 56.5275 -2.5625 56.1875 Z M25.4375 56.1875 C25.4375 59.1575 25.4375 62.1275 25.4375 65.1875 C28.4075 65.6825 28.4075 65.6825 31.4375 66.1875 C31.7675 63.2175 32.0975 60.2475 32.4375 57.1875 C30.1275 56.8575 27.8175 56.5275 25.4375 56.1875 Z M-29.5625 57.1875 C-29.37785634 61.52934202 -29.37785634 61.52934202 -27.5625 65.1875 C-25.89632885 65.22813832 -24.22861905 65.230221 -22.5625 65.1875 C-22.8925 62.5475 -23.2225 59.9075 -23.5625 57.1875 C-25.5425 57.1875 -27.5225 57.1875 -29.5625 57.1875 Z M-16.5625 57.1875 C-16.2325 59.8275 -15.9025 62.4675 -15.5625 65.1875 C-13.2525 65.1875 -10.9425 65.1875 -8.5625 65.1875 C-8.8925 62.2175 -9.2225 59.2475 -9.5625 56.1875 C-11.90109436 56.1875 -14.26280423 56.79606242 -16.5625 57.1875 Z M11.4375 57.1875 C11.4375 59.8275 11.4375 62.4675 11.4375 65.1875 C13.4175 65.1875 15.3975 65.1875 17.4375 65.1875 C17.7675 62.5475 18.0975 59.9075 18.4375 57.1875 C16.1275 57.1875 13.8175 57.1875 11.4375 57.1875 Z M39.4375 57.1875 C39.1075 60.1575 38.7775 63.1275 38.4375 66.1875 C40.4175 65.8575 42.3975 65.5275 44.4375 65.1875 C44.7675 62.5475 45.0975 59.9075 45.4375 57.1875 C43.4575 57.1875 41.4775 57.1875 39.4375 57.1875 Z M-26.5625 72.1875 C-25.9025 75.1575 -25.2425 78.1275 -24.5625 81.1875 C-23.2425 81.1875 -21.9225 81.1875 -20.5625 81.1875 C-20.8925 78.2175 -21.2225 75.2475 -21.5625 72.1875 C-23.2125 72.1875 -24.8625 72.1875 -26.5625 72.1875 Z M-14.5625 72.1875 C-14.2325 75.1575 -13.9025 78.1275 -13.5625 81.1875 C-11.5825 81.1875 -9.6025 81.1875 -7.5625 81.1875 C-7.5625 78.2175 -7.5625 75.2475 -7.5625 72.1875 C-9.8725 72.1875 -12.1825 72.1875 -14.5625 72.1875 Z M-1.5625 72.1875 C-1.2325 75.1575 -0.9025 78.1275 -0.5625 81.1875 C1.0875 81.1875 2.7375 81.1875 4.4375 81.1875 C4.4375 78.2175 4.4375 75.2475 4.4375 72.1875 C2.4575 72.1875 0.4775 72.1875 -1.5625 72.1875 Z M11.4375 72.1875 C11.4375 75.1575 11.4375 78.1275 11.4375 81.1875 C13.0875 81.1875 14.7375 81.1875 16.4375 81.1875 C16.7675 78.2175 17.0975 75.2475 17.4375 72.1875 C15.4575 72.1875 13.4775 72.1875 11.4375 72.1875 Z M23.4375 72.1875 C23.7675 75.1575 24.0975 78.1275 24.4375 81.1875 C26.0875 81.1875 27.7375 81.1875 29.4375 81.1875 C29.7675 78.2175 30.0975 75.2475 30.4375 72.1875 C28.1275 72.1875 25.8175 72.1875 23.4375 72.1875 Z M38.4375 72.1875 C37.23188816 73.17017859 37.23188816 73.17017859 37.33984375 75.03515625 C37.35144531 75.76605469 37.36304688 76.49695313 37.375 77.25 C37.395625 78.549375 37.41625 79.84875 37.4375 81.1875 C38.4275 81.1875 39.4175 81.1875 40.4375 81.1875 C41.0975 78.2175 41.7575 75.2475 42.4375 72.1875 C41.1175 72.1875 39.7975 72.1875 38.4375 72.1875 Z " fill="#4CB381" transform="translate(95.5625,139.8125)"/>
<path d="M0 0 C1.95825873 -0.02694851 3.91662226 -0.04637218 5.875 -0.0625 C6.96554688 -0.07410156 8.05609375 -0.08570313 9.1796875 -0.09765625 C12 0 12 0 14 1 C14.40729228 3.32156597 14.74438677 5.6568787 15 8 C17.31 8.33 19.62 8.66 22 9 C22 6.36 22 3.72 22 1 C26.75 -0.125 26.75 -0.125 29 1 C29.40729228 3.32156597 29.74438677 5.6568787 30 8 C32.31 8.33 34.62 8.66 37 9 C37 6.36 37 3.72 37 1 C35.35 1 33.7 1 32 1 C32 0.67 32 0.34 32 0 C41.24 0 50.48 0 60 0 C59.67 2.97 59.34 5.94 59 9 C59.94875 8.814375 60.8975 8.62875 61.875 8.4375 C65 8 65 8 67 9 C67 6.36 67 3.72 67 1 C65.02 1 63.04 1 61 1 C61 0.67 61 0.34 61 0 C62.97909398 -0.02686553 64.95828971 -0.04633375 66.9375 -0.0625 C68.03964844 -0.07410156 69.14179688 -0.08570313 70.27734375 -0.09765625 C73 0 73 0 74 1 C74.04092937 3.33297433 74.04241723 5.66705225 74 8 C75.65 8.33 77.3 8.66 79 9 C79.33 6.69 79.66 4.38 80 2 C80.33 2 80.66 2 81 2 C81.1799928 7.21979128 80.97094808 11.07262981 79 16 C76.69 16 74.38 16 72 16 C72 18.64 72 21.28 72 24 C73.65 24 75.3 24 77 24 C75.75 26.5 75.75 26.5 74 29 C72.68 29 71.36 29 70 29 C70.495 30.485 70.495 30.485 71 32 C70.83988879 34.70123106 70.39559392 37.31875231 70 40 C71.485 40.495 71.485 40.495 73 41 C51.88 41 30.76 41 9 41 C10.485 40.505 10.485 40.505 12 40 C11.67 39.34 11.34 38.68 11 38 C10.95977609 35.6670134 10.95679753 33.33293334 11 31 C9.35 31 7.7 31 6 31 C5 26.25 5 26.25 5 24 C6.65 24 8.3 24 10 24 C9.67 21.36 9.34 18.72 9 16 C6.52733235 16.34444881 6.52733235 16.34444881 4 17 C3.67 17.66 3.34 18.32 3 19 C-0.25601751 11.78774617 -0.25601751 11.78774617 0.8125 8.5 C1.204375 8.005 1.59625 7.51 2 7 C2 7.66 2 8.32 2 9 C3.65 8.67 5.3 8.34 7 8 C7 5.69 7 3.38 7 1 C5.02 1 3.04 1 1 1 C0.67 2.32 0.34 3.64 0 5 C0 3.35 0 1.7 0 0 Z M44 1 C44 3.31 44 5.62 44 8 C46.31 8.33 48.62 8.66 51 9 C52.35439668 6.29120665 52.06501451 3.99066732 52 1 C49.36 1 46.72 1 44 1 Z M30 15 C30.33 17.97 30.66 20.94 31 24 C32.98 24 34.96 24 37 24 C37 21.36 37 18.72 37 16 C34.69 15.67 32.38 15.34 30 15 Z M58 15 C58 17.97 58 20.94 58 24 C60.97 24.495 60.97 24.495 64 25 C64.33 22.03 64.66 19.06 65 16 C62.69 15.67 60.38 15.34 58 15 Z M16 16 C16.33 18.64 16.66 21.28 17 24 C19.31 24 21.62 24 24 24 C23.67 21.03 23.34 18.06 23 15 C20.66140564 15 18.29969577 15.60856242 16 16 Z M44 16 C44 18.64 44 21.28 44 24 C45.98 24 47.96 24 50 24 C50.33 21.36 50.66 18.72 51 16 C48.69 16 46.38 16 44 16 Z M18 31 C18.33 33.97 18.66 36.94 19 40 C20.98 40 22.96 40 25 40 C25 37.03 25 34.06 25 31 C22.69 31 20.38 31 18 31 Z M31 31 C31.33 33.97 31.66 36.94 32 40 C33.65 40 35.3 40 37 40 C37 37.03 37 34.06 37 31 C35.02 31 33.04 31 31 31 Z M44 31 C44 33.97 44 36.94 44 40 C45.65 40 47.3 40 49 40 C49.33 37.03 49.66 34.06 50 31 C48.02 31 46.04 31 44 31 Z M56 31 C56.33 33.97 56.66 36.94 57 40 C58.65 40 60.3 40 62 40 C62.33 37.03 62.66 34.06 63 31 C60.69 31 58.38 31 56 31 Z " fill="#9BC992" transform="translate(63,181)"/>
<path d="M0 0 C5.15625 -0.061875 10.3125 -0.12375 15.625 -0.1875 C17.24100098 -0.21481201 18.85700195 -0.24212402 20.52197266 -0.27026367 C22.44855713 -0.28150269 22.44855713 -0.28150269 24.4140625 -0.29296875 C25.7232666 -0.3086792 27.0324707 -0.32438965 28.38134766 -0.34057617 C32.99367305 0.09352138 36.25417127 1.55517622 39.8125 4.5 C42.67018942 8.10971295 42.47914729 12.62378811 42 17 C41.19400669 19.49295606 40.1773399 21.6453202 39 24 C39.639375 24.598125 40.27875 25.19625 40.9375 25.8125 C44.51425551 29.60602857 44.34596789 33.51994944 44.2734375 38.48828125 C43.85902734 42.29493454 42.65487279 44.27705355 40 47 C34.9912625 48.81424936 30.37419726 49.27509352 25.09765625 49.1953125 C24.13514954 49.19229126 24.13514954 49.19229126 23.15319824 49.18920898 C20.78955791 49.17885993 18.42602066 49.1509387 16.0625 49.125 C10.761875 49.08375 5.46125 49.0425 0 49 C0 32.83 0 16.66 0 0 Z M11 10 C11 12.97 11 15.94 11 19 C13.58445773 19.1081866 16.16437352 19.18737237 18.75 19.25 C19.84441406 19.30027344 19.84441406 19.30027344 20.9609375 19.3515625 C24.67144375 19.41902625 26.57156961 19.34327652 29.515625 16.984375 C30.00546875 16.32953125 30.4953125 15.6746875 31 15 C30.34 13.35 29.68 11.7 29 10 C23.06 10 17.12 10 11 10 Z M11 29 C11 32.3 11 35.6 11 39 C21.04995094 40.35060335 21.04995094 40.35060335 31 39 C33.36980013 36.04622502 33.36980013 36.04622502 33 32 C28.81748024 28.27009761 24.46605444 28.63994038 19.1875 28.8125 C18.00510742 28.83280273 18.00510742 28.83280273 16.79882812 28.85351562 C14.86558831 28.88866544 12.93270318 28.94246639 11 29 Z " fill="#3D4B59" transform="translate(391,164)"/>
<path d="M0 0 C1 1.9609375 1 1.9609375 1 4 C-0.29296875 5.95703125 -0.29296875 5.95703125 -2.1875 7.8125 C-2.79980469 8.43769531 -3.41210938 9.06289062 -4.04296875 9.70703125 C-6 11 -6 11 -7.98828125 10.88671875 C-10 10 -10 10 -11.87890625 8.46875 C-16.00393704 5.61237509 -21.20751433 6.28538859 -26 7 C-29.2917472 9.43589292 -30.7476827 11.62152405 -33 15 C-33.52276253 20.22762527 -33.28920819 24.04965909 -30.39453125 28.51953125 C-27.77730773 31.29804026 -24.7105526 32.37354307 -21 33 C-18.50773341 32.93898406 -16.44934895 32.56130913 -14 32 C-13.67 27.38 -13.34 22.76 -13 18 C-8.95858806 17.36605303 -5.0934693 16.87595548 -1 17 C1.53881223 23.6643821 2.01234088 30.95650965 1 38 C-3.40778764 43.77974803 -10.37496254 44.9338449 -17.25 45.9375 C-24.92818306 46.46665748 -33.40889626 44.41113625 -39.5625 39.625 C-45.36301597 33.37829049 -47.55538769 27.89073538 -48.3125 19.5625 C-47.66526975 12.18407511 -45.18481281 5.40028556 -40 0 C-28.41084917 -9.56041546 -11.73025926 -9.3974122 0 0 Z " fill="#4AB282" transform="translate(221,169)"/>
<path d="M0 0 C2.7578125 0.56640625 2.7578125 0.56640625 4.05566406 2.05126953 C5.43060669 4.19915573 6.66942915 6.38581684 7.8828125 8.62890625 C8.31207031 9.38107422 8.74132812 10.13324219 9.18359375 10.90820312 C11.71155931 15.40020346 13.70737366 19.78204897 15.7578125 24.56640625 C29.6178125 25.06140625 29.6178125 25.06140625 43.7578125 25.56640625 C44.87833861 31.16903679 44.55412229 35.17747688 42.7578125 40.56640625 C37.01255142 41.45029257 31.78560288 41.616672 26.0078125 41.06640625 C25.02296875 40.97359375 24.038125 40.88078125 23.0234375 40.78515625 C22.27578125 40.71296875 21.528125 40.64078125 20.7578125 40.56640625 C21.4178125 39.57640625 22.0778125 38.58640625 22.7578125 37.56640625 C21.9328125 36.96828125 21.1078125 36.37015625 20.2578125 35.75390625 C19.4328125 35.03203125 18.6078125 34.31015625 17.7578125 33.56640625 C17.7578125 32.57640625 17.7578125 31.58640625 17.7578125 30.56640625 C16.1078125 31.22640625 14.4578125 31.88640625 12.7578125 32.56640625 C13.4178125 33.88640625 14.0778125 35.20640625 14.7578125 36.56640625 C16.4078125 36.56640625 18.0578125 36.56640625 19.7578125 36.56640625 C19.7578125 37.55640625 19.7578125 38.54640625 19.7578125 39.56640625 C14.78546379 40.83624566 9.80647069 40.80952681 4.70703125 40.91796875 C3.24787041 40.95269791 3.24787041 40.95269791 1.75923157 40.98812866 C-0.29579705 41.03566365 -2.35087972 41.08091003 -4.40600586 41.12402344 C-7.5332683 41.19094787 -10.66012659 41.26884752 -13.78710938 41.34765625 C-15.78904762 41.392595 -17.79100051 41.43688683 -19.79296875 41.48046875 C-20.72031326 41.50436676 -21.64765778 41.52826477 -22.60310364 41.55288696 C-27.93304631 41.65457157 -32.96922589 41.36260076 -38.2421875 40.56640625 C-37.9121875 39.90640625 -37.5821875 39.24640625 -37.2421875 38.56640625 C-36.2521875 38.56640625 -35.2621875 38.56640625 -34.2421875 38.56640625 C-34.2421875 37.90640625 -34.2421875 37.24640625 -34.2421875 36.56640625 C-32.9221875 35.90640625 -31.6021875 35.24640625 -30.2421875 34.56640625 C-30.2421875 33.57640625 -30.2421875 32.58640625 -30.2421875 31.56640625 C-33.2121875 31.56640625 -36.1821875 31.56640625 -39.2421875 31.56640625 C-38.7471875 30.08140625 -38.7471875 30.08140625 -38.2421875 28.56640625 C-37.3140625 28.42203125 -36.3859375 28.27765625 -35.4296875 28.12890625 C-32.23493639 27.64540514 -32.23493639 27.64540514 -29.2421875 26.56640625 C-26.9056802 26.87671128 -24.57259732 27.21321275 -22.2421875 27.56640625 C-19.90077574 27.64330126 -17.5574947 27.67447428 -15.21484375 27.6640625 C-13.92900391 27.66083984 -12.64316406 27.65761719 -11.31835938 27.65429688 C-9.98046805 27.64594427 -8.64257743 27.63747936 -7.3046875 27.62890625 C-5.93945476 27.62388284 -4.57422024 27.61932142 -3.20898438 27.61523438 C0.11332707 27.60349476 3.43554658 27.58707304 6.7578125 27.56640625 C7.38316108 25.64343483 7.38316108 25.64343483 7.7578125 23.56640625 C6.78027606 22.54443633 5.7772244 21.54661 4.7578125 20.56640625 C4.40168153 18.90446172 4.06572942 17.23795525 3.7578125 15.56640625 C3.0978125 15.23640625 2.4378125 14.90640625 1.7578125 14.56640625 C1.7578125 13.90640625 1.7578125 13.24640625 1.7578125 12.56640625 C0.7678125 12.56640625 -0.2221875 12.56640625 -1.2421875 12.56640625 C-4.30695234 7.29501072 -4.30695234 7.29501072 -3.9921875 3.75390625 C-3.01858771 0.9142402 -2.9179757 0.7371193 0 0 Z " fill="#46B47F" transform="translate(112.2421875,139.43359375)"/>
<path d="M0 0 C1.65322266 0.01740234 1.65322266 0.01740234 3.33984375 0.03515625 C4.99693359 0.04869141 4.99693359 0.04869141 6.6875 0.0625 C7.54214844 0.07410156 8.39679688 0.08570313 9.27734375 0.09765625 C9.60734375 0.75765625 9.93734375 1.41765625 10.27734375 2.09765625 C10.81875 1.77796875 11.36015625 1.45828125 11.91796875 1.12890625 C16.52115521 -0.88308253 21.37621475 -0.60519452 26.27734375 0.09765625 C31.18399557 2.21945163 33.59861186 4.73551156 35.9765625 9.5078125 C37.96060861 15.22107563 37.63730715 21.0593327 37.52734375 27.03515625 C37.5221875 28.18306641 37.51703125 29.33097656 37.51171875 30.51367188 C37.43186594 38.94313406 37.43186594 38.94313406 36.27734375 40.09765625 C34.27934803 40.19639441 32.27777217 40.22737424 30.27734375 40.22265625 C29.18421875 40.22523438 28.09109375 40.2278125 26.96484375 40.23046875 C24.27734375 40.09765625 24.27734375 40.09765625 23.27734375 39.09765625 C23.11927844 37.17286812 23.02620875 35.24266415 22.9609375 33.3125 C22.91904297 32.14267578 22.87714844 30.97285156 22.83398438 29.76757812 C22.79466797 28.53587891 22.75535156 27.30417969 22.71484375 26.03515625 C22.67166016 24.79958984 22.62847656 23.56402344 22.58398438 22.29101562 C22.47750177 19.2266829 22.37548951 16.16226552 22.27734375 13.09765625 C20.81941491 13.04365889 19.36091663 13.00486448 17.90234375 12.97265625 C16.68417969 12.93785156 16.68417969 12.93785156 15.44140625 12.90234375 C13.06392132 12.88395574 13.06392132 12.88395574 11.27734375 15.09765625 C10.92244808 17.60213406 10.92244808 17.60213406 10.8984375 20.5078125 C10.86427734 21.57966797 10.83011719 22.65152344 10.79492188 23.75585938 C10.76849609 24.87927734 10.74207031 26.00269531 10.71484375 27.16015625 C10.65518231 29.38032347 10.59159888 31.60038998 10.5234375 33.8203125 C10.49950928 34.80781494 10.47558105 35.79531738 10.45092773 36.81274414 C10.27734375 39.09765625 10.27734375 39.09765625 9.27734375 40.09765625 C7.27934803 40.19639441 5.27777217 40.22737424 3.27734375 40.22265625 C2.18421875 40.22523438 1.09109375 40.2278125 -0.03515625 40.23046875 C-2.72265625 40.09765625 -2.72265625 40.09765625 -3.72265625 39.09765625 C-3.8236888 36.29772028 -3.86235713 33.52296981 -3.85546875 30.72265625 C-3.85642548 29.88299316 -3.8573822 29.04333008 -3.85836792 28.17822266 C-3.85904973 26.3994133 -3.85719542 24.62060148 -3.85302734 22.84179688 C-3.84767908 20.10931849 -3.8529723 17.37700449 -3.859375 14.64453125 C-3.85871422 12.92057255 -3.85743306 11.19661396 -3.85546875 9.47265625 C-3.85749298 8.64975098 -3.85951721 7.8268457 -3.86160278 6.97900391 C-3.83313285 0.13748683 -3.83313285 0.13748683 0 0 Z " fill="#50B185" transform="translate(346.72265625,173.90234375)"/>
<path d="M0 0 C6.06984656 3.74843173 8.98885886 8.15798283 11.234375 14.89453125 C11.359375 18.51953125 11.359375 18.51953125 11.234375 21.89453125 C9.45946954 23.66943671 6.85652598 23.12953098 4.44921875 23.2109375 C3.27939453 23.25283203 2.10957031 23.29472656 0.90429688 23.33789062 C-0.32740234 23.37720703 -1.55910156 23.41652344 -2.828125 23.45703125 C-4.68147461 23.52180664 -4.68147461 23.52180664 -6.57226562 23.58789062 C-9.63659835 23.69437323 -12.70101573 23.79638549 -15.765625 23.89453125 C-11.38023138 27.3537956 -9.30996364 27.33455813 -3.765625 26.89453125 C-2.775625 26.23453125 -1.785625 25.57453125 -0.765625 24.89453125 C1.671875 24.95703125 1.671875 24.95703125 4.234375 25.89453125 C6.546875 28.45703125 6.546875 28.45703125 8.234375 30.89453125 C6.50327884 34.95365329 4.71602298 36.32248527 0.7734375 38.12890625 C-6.83621688 40.42350973 -14.93415078 39.75690813 -21.96484375 36.09375 C-24.567431 34.36057368 -26.12338952 32.54737317 -27.765625 29.89453125 C-28.343125 29.00765625 -28.920625 28.12078125 -29.515625 27.20703125 C-31.64534738 21.56326693 -31.64534738 16.22579557 -29.515625 10.58203125 C-22.54858188 -0.11735639 -12.76977467 -5.10430259 0 0 Z M-16.765625 13.89453125 C-12.145625 13.89453125 -7.525625 13.89453125 -2.765625 13.89453125 C-5.16285632 9.84702398 -5.16285632 9.84702398 -7.703125 9.36328125 C-8.38375 9.37359375 -9.064375 9.38390625 -9.765625 9.39453125 C-10.7865625 9.3790625 -10.7865625 9.3790625 -11.828125 9.36328125 C-14.36839368 9.84702398 -14.36839368 9.84702398 -16.765625 13.89453125 Z " fill="#45B07F" transform="translate(284.765625,175.10546875)"/>
<path d="M0 0 C5.59234624 2.8337898 9.85102329 8.52181987 11.8046875 14.3828125 C11.8046875 17.3528125 11.8046875 20.3228125 11.8046875 23.3828125 C2.8946875 23.3828125 -6.0153125 23.3828125 -15.1953125 23.3828125 C-13.47304754 26.63131227 -13.47304754 26.63131227 -10.1953125 27.3828125 C-4.92959781 27.78022493 -1.7509971 27.0495547 2.8046875 24.3828125 C3.84059088 25.45174468 4.85802692 26.53859738 5.8671875 27.6328125 C6.43566406 28.23609375 7.00414062 28.839375 7.58984375 29.4609375 C8.8046875 31.3828125 8.8046875 31.3828125 8.6875 33.4765625 C7.37522325 36.31015123 5.21046981 37.36236129 2.44921875 38.62109375 C-4.64812844 40.66538135 -13.67928132 40.62654258 -20.51171875 37.5703125 C-24.73605907 34.59073139 -27.58041067 30.22751799 -29.1953125 25.3828125 C-29.66858206 19.57168297 -30.05529227 14.23507662 -27.5703125 8.8828125 C-19.64160336 0.53680287 -11.74798749 -3.30281499 0 0 Z M-15.1953125 12.3828125 C-15.1953125 13.0428125 -15.1953125 13.7028125 -15.1953125 14.3828125 C-10.9053125 14.3828125 -6.6153125 14.3828125 -2.1953125 14.3828125 C-2.5253125 13.3928125 -2.8553125 12.4028125 -3.1953125 11.3828125 C-7.42070816 9.27011467 -11.39131912 9.84681691 -15.1953125 12.3828125 Z " fill="#50B385" transform="translate(327.1953125,174.6171875)"/>
<path d="M0 0 C3.63 0 7.26 0 11 0 C11.33 8.91 11.66 17.82 12 27 C12.66 27 13.32 27 14 27 C14.25910156 26.401875 14.51820313 25.80375 14.78515625 25.1875 C16.0916304 22.83500635 17.34116113 21.65903807 19.4375 20 C21.52471146 18.34105007 22.92897128 17.11547359 24.3359375 14.828125 C26 13 26 13 28.91796875 12.609375 C29.99691406 12.65578125 31.07585938 12.7021875 32.1875 12.75 C33.27417969 12.78609375 34.36085938 12.8221875 35.48046875 12.859375 C36.72763672 12.92898437 36.72763672 12.92898437 38 13 C38 17 38 17 36.625 18.75 C35 20 35 20 33 20 C32.773125 20.556875 32.54625 21.11375 32.3125 21.6875 C31 24 31 24 28.3125 26.5 C25.81681282 28.67113449 25.81681282 28.67113449 25.875 30.9375 C27.16503688 33.30256761 28.76556517 35.26551087 30.53125 37.29296875 C32.1477483 39.1717181 33.6774264 41.09718362 35.1875 43.0625 C35.67605469 43.69285156 36.16460938 44.32320312 36.66796875 44.97265625 C38.14701842 47.22376118 39.07692909 49.47577293 40 52 C35.17278748 52.67119949 30.79839504 52.96483857 26 52 C23.21015462 49.34159111 21.52160567 46.76269612 19.6484375 43.40625 C19.10445312 42.6121875 18.56046875 41.818125 18 41 C14.10540926 40.78918149 14.10540926 40.78918149 11 42 C11 45.3 11 48.6 11 52 C7.37 52 3.74 52 0 52 C0 34.84 0 17.68 0 0 Z " fill="#374452" transform="translate(519,161)"/>
<path d="M0 0 C5.5278476 3.35880806 8.2336505 6.83362566 10.296875 12.93359375 C10.296875 16.23359375 10.296875 19.53359375 10.296875 22.93359375 C1.386875 22.93359375 -7.523125 22.93359375 -16.703125 22.93359375 C-16.043125 24.58359375 -15.383125 26.23359375 -14.703125 27.93359375 C-6.24386245 28.38034562 -6.24386245 28.38034562 1.296875 24.93359375 C3.421875 25.55859375 3.421875 25.55859375 5.296875 26.93359375 C5.895 27.36671875 6.493125 27.79984375 7.109375 28.24609375 C8.296875 29.93359375 8.296875 29.93359375 8.1484375 32.39453125 C7.296875 34.93359375 7.296875 34.93359375 5.36328125 36.296875 C-3.87436037 39.79882026 -11.3498789 40.26998487 -20.50390625 36.203125 C-24.62211419 33.82582912 -26.63191034 30.76996174 -29.015625 26.68359375 C-30.76369091 19.69133012 -30.21593243 13.79897801 -26.87109375 7.4296875 C-25.703125 5.93359375 -25.703125 5.93359375 -22.703125 4.93359375 C-22.373125 3.94359375 -22.043125 2.95359375 -21.703125 1.93359375 C-15.71223413 -2.55957441 -6.81744351 -2.68954057 0 0 Z M-17.703125 13.93359375 C-17.703125 14.26359375 -17.703125 14.59359375 -17.703125 14.93359375 C-12.093125 14.93359375 -6.483125 14.93359375 -0.703125 14.93359375 C-2.35169325 10.80955902 -2.35169325 10.80955902 -5.703125 8.93359375 C-11.67457626 8.15951674 -13.94784236 9.26793956 -17.703125 13.93359375 Z " fill="#434F5C" transform="translate(587.703125,175.06640625)"/>
<path d="M0 0 C3.9614221 2.97106658 6.9035406 6.08562181 8.5 10.875 C8.58315752 12.93998892 8.60735878 15.0075789 8.59765625 17.07421875 C8.59443359 18.28271484 8.59121094 19.49121094 8.58789062 20.73632812 C8.57532227 22.6302832 8.57532227 22.6302832 8.5625 24.5625 C8.55798828 25.83673828 8.55347656 27.11097656 8.54882812 28.42382812 C8.53702873 31.57426564 8.52056597 34.72460949 8.5 37.875 C3.83333333 37.875 -0.83333333 37.875 -5.5 37.875 C-6.985 38.37 -6.985 38.37 -8.5 38.875 C-14.93294846 39.64898394 -20.17746107 38.69140081 -25.5 34.875 C-28.09688881 30.97966679 -28.15354801 28.22048059 -28.07421875 23.61328125 C-27.38726545 20.33740191 -26.5329328 19.31329378 -23.9375 17.25 C-17.51743908 13.33038386 -10.77829664 13.72646333 -3.5 13.875 C-4.37644433 11.69771927 -4.37644433 11.69771927 -6.5 9.875 C-10.32140063 9.2525749 -14.03303439 9.13729369 -17.53515625 10.8984375 C-19.5 11.875 -19.5 11.875 -23.5 11.875 C-25.0625 9.0625 -25.0625 9.0625 -26.5 5.875 C-25.5 2.875 -25.5 2.875 -23.890625 1.70703125 C-16.22567547 -1.94361077 -8.13168942 -2.61375731 0 0 Z M-16.5 24.875 C-16.00243908 27.63141416 -16.00243908 27.63141416 -14.5 29.875 C-9.2331834 30.36401727 -9.2331834 30.36401727 -4.4375 28.6875 C-3.11864484 26.13771335 -3.7024884 24.55753902 -4.5 21.875 C-11.13323955 21.36890584 -11.13323955 21.36890584 -16.5 24.875 Z " fill="#384755" transform="translate(466.5,175.125)"/>
<path d="M0 0 C2.1875 1.09765625 2.1875 1.09765625 5.3125 3.09765625 C4.8331753 7.41157851 3.5667015 9.26335172 0.3125 12.09765625 C-0.30625 11.76765625 -0.925 11.43765625 -1.5625 11.09765625 C-5.94961512 9.69377941 -10.11901427 9.93798102 -14.6875 10.09765625 C-15.0175 10.75765625 -15.3475 11.41765625 -15.6875 12.09765625 C-14.05941406 12.44376953 -14.05941406 12.44376953 -12.3984375 12.796875 C-10.95292007 13.12540169 -9.50761859 13.45487958 -8.0625 13.78515625 C-7.34964844 13.93404297 -6.63679688 14.08292969 -5.90234375 14.23632812 C-0.64115663 15.4671563 2.60156436 17.10392769 6.3125 21.09765625 C7.00390625 23.8515625 7.00390625 23.8515625 6.875 26.66015625 C6.85566406 27.58957031 6.83632813 28.51898438 6.81640625 29.4765625 C6.23506652 32.50043038 5.44668031 33.89541552 3.3125 36.09765625 C-4.78802168 40.62044752 -14.2336175 39.92716886 -22.875 37.59765625 C-24.48348742 37.11173557 -26.08947098 36.61693841 -27.6875 36.09765625 C-26.9375 29.47265625 -26.9375 29.47265625 -24.6875 26.09765625 C-20.6875 27.09765625 -20.6875 27.09765625 -18.90625 27.62890625 C-16.20338629 28.1999338 -13.69787148 28.19301782 -10.9375 28.16015625 C-9.95265625 28.15113281 -8.9678125 28.14210937 -7.953125 28.1328125 C-7.20546875 28.12121094 -6.4578125 28.10960937 -5.6875 28.09765625 C-5.3575 27.43765625 -5.0275 26.77765625 -4.6875 26.09765625 C-5.79609375 25.83210938 -6.9046875 25.5665625 -8.046875 25.29296875 C-9.51047811 24.93645004 -10.97401641 24.57966522 -12.4375 24.22265625 C-13.53191406 23.96162109 -13.53191406 23.96162109 -14.6484375 23.6953125 C-23.78396739 21.45295516 -23.78396739 21.45295516 -26.6875 17.09765625 C-27.37431317 12.38579847 -27.38645195 8.36114632 -25.0625 4.16015625 C-18.069054 -1.91309949 -8.72811291 -2.93051466 0 0 Z " fill="#3E4B58" transform="translate(507.6875,174.90234375)"/>
<path d="M0 0 C1.51400391 0.01740234 1.51400391 0.01740234 3.05859375 0.03515625 C4.07050781 0.04417969 5.08242188 0.05320313 6.125 0.0625 C7.29869141 0.07990234 7.29869141 0.07990234 8.49609375 0.09765625 C8.49609375 3.06765625 8.49609375 6.03765625 8.49609375 9.09765625 C11.46609375 9.09765625 14.43609375 9.09765625 17.49609375 9.09765625 C17.49609375 12.06765625 17.49609375 15.03765625 17.49609375 18.09765625 C14.52609375 18.09765625 11.55609375 18.09765625 8.49609375 18.09765625 C8.82609375 24.69765625 9.15609375 31.29765625 9.49609375 38.09765625 C12.13609375 37.76765625 14.77609375 37.43765625 17.49609375 37.09765625 C20.49609375 42.72265625 20.49609375 42.72265625 20.49609375 46.09765625 C15.31946704 48.76946359 10.09056567 48.7958133 4.46484375 47.703125 C2.62109375 47.09765625 2.62109375 47.09765625 -0.50390625 45.09765625 C-3.45812025 38.95618121 -3.89332949 33.83878593 -3.69140625 27.09765625 C-3.67787109 26.22753906 -3.66433594 25.35742188 -3.65039062 24.4609375 C-3.61542303 22.33956998 -3.56163155 20.21852651 -3.50390625 18.09765625 C-5.15390625 18.09765625 -6.80390625 18.09765625 -8.50390625 18.09765625 C-8.50390625 15.12765625 -8.50390625 12.15765625 -8.50390625 9.09765625 C-6.85390625 9.09765625 -5.20390625 9.09765625 -3.50390625 9.09765625 C-3.52453125 7.79828125 -3.54515625 6.49890625 -3.56640625 5.16015625 C-3.58790079 3.80599992 -3.57538824 2.45009542 -3.50390625 1.09765625 C-2.50390625 0.09765625 -2.50390625 0.09765625 0 0 Z " fill="#3E4B5A" transform="translate(608.50390625,165.90234375)"/>
<path d="M0 0 C3.96 0 7.92 0 12 0 C12.33 0.99 12.66 1.98 13 3 C13.495 2.505 13.99 2.01 14.5 1.5 C18.11630158 -0.66978095 20.82231616 -0.20888419 25 0 C25 3.96 25 7.92 25 12 C21.97265625 12.68359375 21.97265625 12.68359375 18.9453125 13.3671875 C16.79280036 13.90474428 16.79280036 13.90474428 15 16 C14.64588245 18.29217392 14.64588245 18.29217392 14.62109375 20.9375 C14.58693359 21.91460937 14.55277344 22.89171875 14.51757812 23.8984375 C14.49115234 24.92195313 14.46472656 25.94546875 14.4375 27 C14.37768583 29.0209553 14.31407235 31.04180285 14.24609375 33.0625 C14.22216553 33.96097656 14.1982373 34.85945313 14.17358398 35.78515625 C14 38 14 38 13 40 C8.71 40 4.42 40 0 40 C0 26.8 0 13.6 0 0 Z " fill="#48AF80" transform="translate(228,174)"/>
<path d="M0 0 C1.95825873 -0.02694851 3.91662226 -0.04637218 5.875 -0.0625 C6.96554688 -0.07410156 8.05609375 -0.08570313 9.1796875 -0.09765625 C12 0 12 0 14 1 C14.40729228 3.32156597 14.74438677 5.6568787 15 8 C17.31 8.33 19.62 8.66 22 9 C22 6.36 22 3.72 22 1 C26.75 -0.125 26.75 -0.125 29 1 C29.40729228 3.32156597 29.74438677 5.6568787 30 8 C32.31 8.33 34.62 8.66 37 9 C37 6.36 37 3.72 37 1 C37.33 1 37.66 1 38 1 C38 3.97 38 6.94 38 10 C38.99 10 39.98 10 41 10 C41 9.34 41 8.68 41 8 C41.66 8 42.32 8 43 8 C43 5.69 43 3.38 43 1 C43.33 1 43.66 1 44 1 C44 3.31 44 5.62 44 8 C46.31 8.33 48.62 8.66 51 9 C51.33 8.34 51.66 7.68 52 7 C52 7.99 52 8.98 52 10 C51.34 10 50.68 10 50 10 C50 10.99 50 11.98 50 13 C50.66 13 51.32 13 52 13 C52 13.99 52 14.98 52 16 C49.36 16 46.72 16 44 16 C44 18.64 44 21.28 44 24 C43.67 24 43.34 24 43 24 C43 21.03 43 18.06 43 15 C41.35 15 39.7 15 38 15 C38.185625 16.27875 38.37125 17.5575 38.5625 18.875 C39.125 22.75 39.125 22.75 38 25 C36.02 25 34.04 25 32 25 C32 24.67 32 24.34 32 24 C33.65 24 35.3 24 37 24 C37 21.36 37 18.72 37 16 C35.02 16 33.04 16 31 16 C31 18.31 31 20.62 31 23 C30.34 23 29.68 23 29 23 C28.67 23.66 28.34 24.32 28 25 C24.04 25 20.08 25 16 25 C16 25.33 16 25.66 16 26 C13.69 25.67 11.38 25.34 9 25 C9 25.66 9 26.32 9 27 C7.68 26.34 6.36 25.68 5 25 C5 24.67 5 24.34 5 24 C6.65 24 8.3 24 10 24 C9.67 21.36 9.34 18.72 9 16 C6.52733235 16.34444881 6.52733235 16.34444881 4 17 C3.67 17.66 3.34 18.32 3 19 C-0.25601751 11.78774617 -0.25601751 11.78774617 0.8125 8.5 C1.204375 8.005 1.59625 7.51 2 7 C2 7.66 2 8.32 2 9 C3.65 8.67 5.3 8.34 7 8 C7 5.69 7 3.38 7 1 C5.02 1 3.04 1 1 1 C0.67 2.32 0.34 3.64 0 5 C0 3.35 0 1.7 0 0 Z M16 16 C16.33 18.64 16.66 21.28 17 24 C19.31 24 21.62 24 24 24 C23.67 21.03 23.34 18.06 23 15 C20.66140564 15 18.29969577 15.60856242 16 16 Z " fill="#98C68D" transform="translate(63,181)"/>
<path d="M0 0 C1.07894531 0.04640625 2.15789063 0.0928125 3.26953125 0.140625 C4.35621094 0.17671875 5.44289063 0.2128125 6.5625 0.25 C7.39394531 0.29640625 8.22539063 0.3428125 9.08203125 0.390625 C9.08203125 4.390625 9.08203125 4.390625 7.70703125 6.140625 C6.08203125 7.390625 6.08203125 7.390625 4.08203125 7.390625 C3.85515625 7.9475 3.62828125 8.504375 3.39453125 9.078125 C2.08203125 11.390625 2.08203125 11.390625 -0.60546875 13.890625 C-3.10115593 16.06175949 -3.10115593 16.06175949 -3.04296875 18.328125 C-1.75293187 20.69319261 -0.15240358 22.65613587 1.61328125 24.68359375 C3.22977955 26.5623431 4.75945765 28.48780862 6.26953125 30.453125 C6.75808594 31.08347656 7.24664063 31.71382812 7.75 32.36328125 C9.22904967 34.61438618 10.15896034 36.86639793 11.08203125 39.390625 C6.25487603 40.06181653 1.88202831 40.34443752 -2.91796875 39.390625 C-5.74291492 36.81132632 -7.44680596 34.2879199 -9.3671875 30.9921875 C-10.80565353 28.15445281 -10.80565353 28.15445281 -13.91796875 26.390625 C-13.91796875 25.730625 -13.91796875 25.070625 -13.91796875 24.390625 C-12.92796875 24.390625 -11.93796875 24.390625 -10.91796875 24.390625 C-9.74535967 22.4638531 -9.74535967 22.4638531 -10.04296875 20.390625 C-10.78142618 18.1147941 -10.78142618 18.1147941 -13.48046875 17.140625 C-14.28484375 16.893125 -15.08921875 16.645625 -15.91796875 16.390625 C-14.72184842 11.45662866 -11.67263167 9.19766995 -7.890625 6.13671875 C-5.82660744 4.47745604 -5.82660744 4.47745604 -4.55078125 2.19140625 C-2.91796875 0.390625 -2.91796875 0.390625 0 0 Z M-9.91796875 18.390625 C-8.91796875 20.390625 -8.91796875 20.390625 -8.91796875 20.390625 Z M-14.91796875 18.390625 C-14.25796875 18.390625 -13.59796875 18.390625 -12.91796875 18.390625 C-13.24796875 19.050625 -13.57796875 19.710625 -13.91796875 20.390625 C-14.24796875 19.730625 -14.57796875 19.070625 -14.91796875 18.390625 Z " fill="#404D5B" transform="translate(547.91796875,173.609375)"/>
<path d="M0 0 C1.65 0 3.3 0 5 0 C5 2.97 5 5.94 5 9 C9.29 9.33 13.58 9.66 18 10 C18 10.33 18 10.66 18 11 C17.38511719 11.12117187 16.77023438 11.24234375 16.13671875 11.3671875 C15.32847656 11.53476563 14.52023438 11.70234375 13.6875 11.875 C12.48673828 12.11863281 12.48673828 12.11863281 11.26171875 12.3671875 C8.74698882 12.94478999 8.74698882 12.94478999 6 15 C5.41810734 17.42521494 5.41810734 17.42521494 5.3125 20.125 C5.24675781 21.03507812 5.18101563 21.94515625 5.11328125 22.8828125 C5.07589844 23.58148438 5.03851563 24.28015625 5 25 C3.33388095 25.042721 1.66617115 25.04063832 0 25 C-1 24 -1 24 -1.09765625 22.15234375 C-1.06510417 20.1015625 -1.03255208 18.05078125 -1 16 C-6.32170494 15.70437633 -6.32170494 15.70437633 -11 18 C-11.33 17.67 -11.66 17.34 -12 17 C-13.34747084 16.76924918 -14.70377565 16.58846937 -16.0625 16.4375 C-17.361875 16.293125 -18.66125 16.14875 -20 16 C-19.91621094 16.63808594 -19.83242187 17.27617187 -19.74609375 17.93359375 C-19.64425781 18.75988281 -19.54242188 19.58617187 -19.4375 20.4375 C-19.33308594 21.26121094 -19.22867188 22.08492187 -19.12109375 22.93359375 C-19.08113281 23.61550781 -19.04117188 24.29742187 -19 25 C-20 26 -20 26 -22.06640625 26.09765625 C-22.89011719 26.08605469 -23.71382812 26.07445312 -24.5625 26.0625 C-25.38878906 26.05347656 -26.21507813 26.04445312 -27.06640625 26.03515625 C-28.02353516 26.01775391 -28.02353516 26.01775391 -29 26 C-28.01 25.67 -27.02 25.34 -26 25 C-26.33 24.34 -26.66 23.68 -27 23 C-27.04022391 20.6670134 -27.04320247 18.33293334 -27 16 C-28.65 16 -30.3 16 -32 16 C-32.33 14.35 -32.66 12.7 -33 11 C-31.68 11.33 -30.36 11.66 -29 12 C-29 11.34 -29 10.68 -29 10 C-27.576875 10.0309375 -27.576875 10.0309375 -26.125 10.0625 C-23.09333717 10.22551826 -23.09333717 10.22551826 -21 9 C-19.20962132 8.92895323 -17.4166574 8.91588483 -15.625 8.9375 C-14.66851562 8.94652344 -13.71203125 8.95554688 -12.7265625 8.96484375 C-11.82679687 8.97644531 -10.92703125 8.98804688 -10 9 C-8.68 9 -7.36 9 -6 9 C-3.99598989 9.30830925 -1.99488234 9.63729412 0 10 C0 6.7 0 3.4 0 0 Z " fill="#92C483" transform="translate(101,196)"/>
<path d="M0 0 C5.41635457 3.29807729 8.766445 6.81003482 10.6171875 12.94140625 C10.8671875 15.94140625 10.8671875 15.94140625 10.6171875 17.94140625 C9.6271875 17.94140625 8.6371875 17.94140625 7.6171875 17.94140625 C6.92302734 18.67375488 6.92302734 18.67375488 6.21484375 19.42089844 C4.09854153 21.43500758 2.93665244 21.30306937 0.0546875 21.26953125 C-1.26402344 21.26179688 -1.26402344 21.26179688 -2.609375 21.25390625 C-3.52460937 21.23328125 -4.43984375 21.21265625 -5.3828125 21.19140625 C-6.29804687 21.18625 -7.21328125 21.18109375 -8.15625 21.17578125 C-14.91762443 21.09646894 -14.91762443 21.09646894 -18.3828125 19.94140625 C-18.7128125 18.95140625 -19.0428125 17.96140625 -19.3828125 16.94140625 C-17.3828125 14.94140625 -17.3828125 14.94140625 -13.46875 14.74609375 C-11.89831899 14.75940249 -10.32795029 14.78327023 -8.7578125 14.81640625 C-7.95601562 14.82542969 -7.15421875 14.83445313 -6.328125 14.84375 C-4.34622727 14.86734402 -2.36448269 14.9032156 -0.3828125 14.94140625 C-1.2078125 14.15765625 -2.0328125 13.37390625 -2.8828125 12.56640625 C-5.3828125 9.94140625 -5.3828125 9.94140625 -5.3828125 7.94140625 C-6.4553125 7.98265625 -7.5278125 8.02390625 -8.6328125 8.06640625 C-12.04028735 7.95282375 -13.59020881 7.72867261 -16.3828125 5.94140625 C-16.0528125 5.28140625 -15.7228125 4.62140625 -15.3828125 3.94140625 C-14.7228125 3.94140625 -14.0628125 3.94140625 -13.3828125 3.94140625 C-13.3828125 2.62140625 -13.3828125 1.30140625 -13.3828125 -0.05859375 C-8.59579491 -1.65426628 -4.6280468 -2.05606669 0 0 Z " fill="#3A4957" transform="translate(587.3828125,175.05859375)"/>
<path d="M0 0 C8.12816503 -0.62435407 14.60303018 -0.98447261 21.2265625 4.2109375 C25.51014058 8.53225636 27.91387035 13.50224029 28.125 19.625 C28 23 28 23 27 24 C25.07332493 24.08748207 23.14348139 24.10697334 21.21484375 24.09765625 C20.04501953 24.09443359 18.87519531 24.09121094 17.66992188 24.08789062 C16.43822266 24.07951172 15.20652344 24.07113281 13.9375 24.0625 C12.08415039 24.05573242 12.08415039 24.05573242 10.19335938 24.04882812 C7.12885883 24.03699608 4.06445279 24.02051173 1 24 C2.36983503 20.83884224 2.9890638 20.0072908 6 18 C7.98 18 9.96 18 12 18 C7.71 17.67 3.42 17.34 -1 17 C-1 15.68 -1 14.36 -1 13 C-0.34 13.33 0.32 13.66 1 14 C3.04055005 14.07065617 5.08334257 14.08421976 7.125 14.0625 C8.22070312 14.05347656 9.31640625 14.04445312 10.4453125 14.03515625 C11.28835938 14.02355469 12.13140625 14.01195312 13 14 C11.21342243 11.78629949 11.21342243 11.78629949 8.8359375 11.8046875 C8.02382813 11.82789063 7.21171875 11.85109375 6.375 11.875 C5.14910156 11.90207031 5.14910156 11.90207031 3.8984375 11.9296875 C2.95871094 11.96449219 2.95871094 11.96449219 2 12 C2 11.34 2 10.68 2 10 C5.96 10 9.92 10 14 10 C14.66 11.32 15.32 12.64 16 14 C17.31626692 10.38026598 18 7.90432869 18 4 C15.36 3.67 12.72 3.34 10 3 C10 2.34 10 1.68 10 1 C6.7 1 3.4 1 0 1 C0 0.67 0 0.34 0 0 Z " fill="#51B086" transform="translate(268,174)"/>
<path d="M0 0 C0.66 0.99 1.32 1.98 2 3 C1.34513173 4.67133772 0.67658268 6.33733404 0 8 C-0.02920459 11.13388899 -0.02920459 11.13388899 0.375 14.3125 C0.48585938 15.38113281 0.59671875 16.44976562 0.7109375 17.55078125 C0.85402344 18.76314453 0.85402344 18.76314453 1 20 C1.99 20.33 2.98 20.66 4 21 C4.6875 23.0625 4.6875 23.0625 5 25 C6.32 25.33 7.64 25.66 9 26 C9.33 25.34 9.66 24.68 10 24 C11.32 24.33 12.64 24.66 14 25 C13.01 22.03 12.02 19.06 11 16 C11.66 16.495 12.32 16.99 13 17.5 C17.04779924 19.52389962 19.49570147 19.36324988 24 19 C24.99 18.34 25.98 17.68 27 17 C29.4375 17.0625 29.4375 17.0625 32 18 C34.3125 20.5625 34.3125 20.5625 36 23 C34.26890384 27.05912204 32.48164798 28.42795402 28.5390625 30.234375 C20.92940812 32.52897848 12.83147422 31.86237688 5.80078125 28.19921875 C3.198194 26.46604243 1.64223548 24.65284192 0 22 C-0.5775 21.113125 -1.155 20.22625 -1.75 19.3125 C-3.95243799 13.47603932 -3.88158076 8.13048683 -1.5 2.375 C-1.005 1.59125 -0.51 0.8075 0 0 Z " fill="#47B180" transform="translate(257,183)"/>
<path d="M0 0 C2.08203125 1.66796875 2.08203125 1.66796875 3.08203125 3.62890625 C3.08203125 5.66796875 3.08203125 5.66796875 1.7890625 7.625 C1.16386719 8.23730469 0.53867188 8.84960938 -0.10546875 9.48046875 C-0.71777344 10.10566406 -1.33007812 10.73085937 -1.9609375 11.375 C-3.91796875 12.66796875 -3.91796875 12.66796875 -5.90625 12.5546875 C-7.91796875 11.66796875 -7.91796875 11.66796875 -9.79296875 10.125 C-12.61503563 8.19001664 -14.5263829 8.30035548 -17.91796875 8.35546875 C-19.46484375 8.36126953 -19.46484375 8.36126953 -21.04296875 8.3671875 C-23.84430061 8.66026162 -25.52967078 9.22695243 -27.91796875 10.66796875 C-27.91796875 9.67796875 -27.91796875 8.68796875 -27.91796875 7.66796875 C-26.59796875 7.00796875 -25.27796875 6.34796875 -23.91796875 5.66796875 C-24.57796875 5.33796875 -25.23796875 5.00796875 -25.91796875 4.66796875 C-24.04296875 -0.20703125 -24.04296875 -0.20703125 -22.91796875 -1.33203125 C-25.55796875 -1.33203125 -28.19796875 -1.33203125 -30.91796875 -1.33203125 C-30.58796875 -1.99203125 -30.25796875 -2.65203125 -29.91796875 -3.33203125 C-19.02091373 -6.72619593 -9.9292348 -5.5257115 0 0 Z " fill="#56B588" transform="translate(218.91796875,167.33203125)"/>
<path d="M0 0 C2.34162527 1.72540809 3.84560522 3.28597507 5.375 5.75 C3.375 5.75 1.375 5.75 -0.625 5.75 C-0.955 6.41 -1.285 7.07 -1.625 7.75 C-2.285 7.75 -2.945 7.75 -3.625 7.75 C-3.295 10.06 -2.965 12.37 -2.625 14.75 C-5.925 14.75 -9.225 14.75 -12.625 14.75 C-12.625 14.42 -12.625 14.09 -12.625 13.75 C-9.655 13.75 -6.685 13.75 -3.625 13.75 C-4.50144433 11.57271927 -4.50144433 11.57271927 -6.625 9.75 C-10.44640063 9.1275749 -14.15803439 9.01229369 -17.66015625 10.7734375 C-19.625 11.75 -19.625 11.75 -23.625 11.75 C-25.1875 8.9375 -25.1875 8.9375 -26.625 5.75 C-25.625 2.75 -25.625 2.75 -24.015625 1.58203125 C-16.31138556 -2.08732366 -8.12751263 -2.80259056 0 0 Z " fill="#45515E" transform="translate(466.625,175.25)"/>
<path d="M0 0 C-0.33 1.65 -0.66 3.3 -1 5 C-0.01 5 0.98 5 2 5 C2.33 4.34 2.66 3.68 3 3 C3 11.25 3 19.5 3 28 C-0.63 28 -4.26 28 -8 28 C-8.05373546 24.04148748 -8.0935461 20.08369745 -8.125 16.125 C-8.14175781 14.99707031 -8.15851563 13.86914062 -8.17578125 12.70703125 C-8.18222656 11.63066406 -8.18867188 10.55429688 -8.1953125 9.4453125 C-8.20578613 8.45031738 -8.21625977 7.45532227 -8.22705078 6.43017578 C-8 4 -8 4 -6 2 C-6 3.32 -6 4.64 -6 6 C-5.896875 5.38125 -5.79375 4.7625 -5.6875 4.125 C-4.72223986 1.14146864 -3.16449578 0 0 0 Z " fill="#48B080" transform="translate(379,184)"/>
<path d="M0 0 C1.98 0.66 3.96 1.32 6 2 C6.33 3.65 6.66 5.3 7 7 C11.455 7.99 11.455 7.99 16 9 C16 13 16 13 15 15 C14.34 15 13.68 15 13 15 C13 15.66 13 16.32 13 17 C13.99 16.67 14.98 16.34 16 16 C16 16.66 16 17.32 16 18 C16.66 18.33 17.32 18.66 18 19 C11.4052267 19.37328905 5.11659923 18.64822067 -1 16 C-3.25010372 13.58358426 -3.93634518 12.41830309 -4.4375 9.125 C-3.89498729 5.24990919 -2.34729859 3.0808294 0 0 Z " fill="#42505C" transform="translate(485,180)"/>
<path d="M0 0 C1.60294922 0.04060547 1.60294922 0.04060547 3.23828125 0.08203125 C4.04652344 0.11683594 4.85476563 0.15164062 5.6875 0.1875 C5.6875 0.8475 5.6875 1.5075 5.6875 2.1875 C7.110625 2.1565625 7.110625 2.1565625 8.5625 2.125 C11.6875 2.1875 11.6875 2.1875 13.6875 3.1875 C14.69668462 6.21505386 14.7855982 7.85547534 13.875 10.9375 C12.6875 13.1875 12.6875 13.1875 10.6875 14.1875 C10.3575 12.5375 10.0275 10.8875 9.6875 9.1875 C5.7275 9.1875 1.7675 9.1875 -2.3125 9.1875 C-2.3125 10.1775 -2.3125 11.1675 -2.3125 12.1875 C-3.6325 12.5175 -4.9525 12.8475 -6.3125 13.1875 C-6.3125 11.5375 -6.3125 9.8875 -6.3125 8.1875 C-7.3025 8.5175 -8.2925 8.8475 -9.3125 9.1875 C-10.3025 8.1975 -11.2925 7.2075 -12.3125 6.1875 C-11.3125 3.1875 -11.3125 3.1875 -9.14453125 1.51171875 C-5.84058824 -0.03315943 -3.62584322 -0.11953329 0 0 Z " fill="#49B181" transform="translate(272.3125,174.8125)"/>
<path d="M0 0 C9.24 0 18.48 0 28 0 C27.01 0.495 27.01 0.495 26 1 C26 3.97 26 6.94 26 10 C27.32 10.33 28.64 10.66 30 11 C29.625 12.9375 29.625 12.9375 29 15 C28.01 15.495 28.01 15.495 27 16 C27 15.01 27 14.02 27 13 C26.34 13 25.68 13 25 13 C24.67 15.97 24.34 18.94 24 22 C22.35 21.67 20.7 21.34 19 21 C19.33 18.36 19.66 15.72 20 13 C19.34 13 18.68 13 18 13 C18 12.01 18 11.02 18 10 C18.66 10 19.32 10 20 10 C20 7.03 20 4.06 20 1 C17.03 1 14.06 1 11 1 C11 3.31 11 5.62 11 8 C10.34 8 9.68 8 9 8 C9 8.66 9 9.32 9 10 C8.01 10 7.02 10 6 10 C6 7.03 6 4.06 6 1 C4.02 1 2.04 1 0 1 C0 0.67 0 0.34 0 0 Z " fill="#90C486" transform="translate(95,181)"/>
<path d="M0 0 C2.4375 0.1875 2.4375 0.1875 3.4375 1.1875 C3.25639807 9.51818885 -1.54638749 16.77468551 -6.5625 23.1875 C-7.2225 22.8575 -7.8825 22.5275 -8.5625 22.1875 C-8.5625 20.8675 -8.5625 19.5475 -8.5625 18.1875 C-9.2225 18.1875 -9.8825 18.1875 -10.5625 18.1875 C-10.8925 19.1775 -11.2225 20.1675 -11.5625 21.1875 C-12.5525 21.5175 -13.5425 21.8475 -14.5625 22.1875 C-13.30314135 17.608014 -11.35865531 14.08152374 -8.796875 10.1484375 C-7.40017963 8.00068678 -7.40017963 8.00068678 -5.875 4.8125 C-3.60047468 0.26344937 -3.60047468 0.26344937 0 0 Z " fill="#67B68F" transform="translate(95.5625,139.8125)"/>
<path d="M0 0 C1.57844946 2.82092374 2.24418256 4.97140085 2.4375 8.1875 C2.81899541 12.45459685 3.90119117 16.14342294 5.37890625 20.15234375 C6 22 6 22 6 24 C6.99 24.33 7.98 24.66 9 25 C8.01 25 7.02 25 6 25 C6.37125 26.03125 6.7425 27.0625 7.125 28.125 C8.07905897 32.35011828 7.83664709 34.14304111 6 38 C5.01 38.495 5.01 38.495 4 39 C4 38.34 4 37.68 4 37 C3.01 37 2.02 37 1 37 C1.309375 35.7315625 1.309375 35.7315625 1.625 34.4375 C2.06205407 30.43117099 1.28722356 27.79015827 0 24 C-1.00496852 20.98509443 -1.10335303 18.95818308 -1.0625 15.8125 C-1.05347656 14.91144531 -1.04445312 14.01039063 -1.03515625 13.08203125 C-1.02355469 12.39496094 -1.01195312 11.70789063 -1 11 C-1.66 11 -2.32 11 -3 11 C-3.36923077 4.6 -3.36923077 4.6 -1.5 1.5625 C-1.005 1.046875 -0.51 0.53125 0 0 Z " fill="#4EB07A" transform="translate(62,182)"/>
<path d="M0 0 C0.33 0 0.66 0 1 0 C1 2.97 1 5.94 1 9 C1.99 9 2.98 9 4 9 C4 8.34 4 7.68 4 7 C4.66 7 5.32 7 6 7 C6 4.69 6 2.38 6 0 C6.33 0 6.66 0 7 0 C7 2.31 7 4.62 7 7 C9.31 7.33 11.62 7.66 14 8 C14.33 7.34 14.66 6.68 15 6 C15 6.99 15 7.98 15 9 C14.34 9 13.68 9 13 9 C13 9.99 13 10.98 13 12 C13.66 12 14.32 12 15 12 C15 12.99 15 13.98 15 15 C12.36 15 9.72 15 7 15 C7 17.64 7 20.28 7 23 C6.67 23 6.34 23 6 23 C6 20.03 6 17.06 6 14 C4.35 14 2.7 14 1 14 C1.185625 15.27875 1.37125 16.5575 1.5625 17.875 C2.125 21.75 2.125 21.75 1 24 C-0.98 24 -2.96 24 -5 24 C-5 23.67 -5 23.34 -5 23 C-3.35 23 -1.7 23 0 23 C0 20.36 0 17.72 0 15 C-0.99 15 -1.98 15 -3 15 C-3.66 13.68 -4.32 12.36 -5 11 C-4.34 10.01 -3.68 9.02 -3 8 C-2.01 8 -1.02 8 0 8 C0 5.36 0 2.72 0 0 Z " fill="#A9D09E" transform="translate(100,182)"/>
<path d="M0 0 C-0.66 0.66 -1.32 1.32 -2 2 C-2.69748583 3.31747324 -3.36959957 4.64914193 -4 6 C-3.34 6.66 -2.68 7.32 -2 8 C0.10820797 7.6814823 0.10820797 7.6814823 2 7 C1.484375 7.391875 0.96875 7.78375 0.4375 8.1875 C-0.2740625 9.0846875 -0.2740625 9.0846875 -1 10 C-0.76956136 12.65466049 -0.76956136 12.65466049 0 15 C-2.375 16.0625 -2.375 16.0625 -5 17 C-5.66 16.67 -6.32 16.34 -7 16 C-7 16.66 -7 17.32 -7 18 C-7.66 18.33 -8.32 18.66 -9 19 C-8.01 19.99 -7.02 20.98 -6 22 C-9.65316671 20.75023244 -10.78065836 20.32901247 -13 17 C-13.72483845 13.21539268 -13.80125818 9.7750553 -13 6 C-9.45244275 1.4818036 -5.71504053 -0.37032662 0 0 Z " fill="#4A5763" transform="translate(452,190)"/>
<path d="M0 0 C1.95825873 -0.02694851 3.91662226 -0.04637218 5.875 -0.0625 C6.96554688 -0.07410156 8.05609375 -0.08570313 9.1796875 -0.09765625 C12 0 12 0 14 1 C15.02929851 4.4621859 14.85577586 6.57689658 14 10 C14.38567131 12.68149993 14.38567131 12.68149993 15 15 C11.87819599 15.96661363 9.47916205 15.98988909 6.25 15.5625 C5.45078125 15.46066406 4.6515625 15.35882813 3.828125 15.25390625 C3.22484375 15.17011719 2.6215625 15.08632812 2 15 C1.34 13.02 0.68 11.04 0 9 C0.66 8.34 1.32 7.68 2 7 C2 7.66 2 8.32 2 9 C3.65 8.67 5.3 8.34 7 8 C7 5.69 7 3.38 7 1 C5.02 1 3.04 1 1 1 C0.67 2.32 0.34 3.64 0 5 C0 3.35 0 1.7 0 0 Z " fill="#8DC688" transform="translate(63,181)"/>
<path d="M0 0 C0.495 1.485 0.495 1.485 1 3 C-2.56882177 6.96535752 -5.55807201 8.78820175 -10.92811584 9.25396729 C-12.00637131 9.25555847 -13.08462677 9.25714966 -14.19555664 9.25878906 C-15.42355484 9.26509338 -16.65155304 9.27139771 -17.91676331 9.27789307 C-19.23458298 9.2738446 -20.55240265 9.26979614 -21.91015625 9.265625 C-23.28348357 9.26697331 -24.65681042 9.26891523 -26.03013611 9.27142334 C-28.90238 9.27436581 -31.77449916 9.27010465 -34.64672852 9.26074219 C-38.32430202 9.24933728 -42.0015839 9.25591906 -45.67914677 9.26788712 C-48.5127532 9.2751203 -51.34629069 9.27281129 -54.17989922 9.26763153 C-56.19399582 9.26565315 -58.20809513 9.27171509 -60.22218323 9.27789307 C-61.44702927 9.27158875 -62.67187531 9.26528442 -63.93383789 9.25878906 C-65.01129776 9.25719788 -66.08875763 9.25560669 -67.1988678 9.25396729 C-69.98113693 9.00171024 -71.63334796 8.43650042 -74 7 C-72.81395927 6.9845388 -72.81395927 6.9845388 -71.60395813 6.96876526 C-64.1443581 6.87069765 -56.6848389 6.76817024 -49.22536945 6.66066074 C-45.39059044 6.60554864 -41.55580365 6.55214779 -37.72094727 6.50268555 C-34.01857775 6.4548687 -30.31629727 6.40252041 -26.61403465 6.34705925 C-25.20310884 6.32671394 -23.79215868 6.3079883 -22.38118935 6.29092598 C-20.40161103 6.2667082 -18.42211346 6.23614414 -16.44262695 6.20532227 C-15.31677689 6.18977798 -14.19092682 6.1742337 -13.03096008 6.15821838 C-10.24898932 6.01299743 -7.70890163 5.62922134 -5 5 C-4.67 3.68 -4.34 2.36 -4 1 C-3.01 1.99 -3.01 1.99 -2 3 C-1.34 2.01 -0.68 1.02 0 0 Z " fill="#80D59E" transform="translate(143,221)"/>
<path d="M0 0 C1.20628008 2.33214148 2.1654738 4.49642139 3 7 C22.8 7 42.6 7 63 7 C63 7.66 63 8.32 63 9 C50.21661023 10.25513247 37.45488119 10.11376536 24.625 10.0625 C22.42448019 10.05747376 20.22395926 10.05291285 18.0234375 10.04882812 C12.68226697 10.03791436 7.34113883 10.0212658 2 10 C1.34 11.32 0.68 12.64 0 14 C-3.16115776 12.63016497 -3.9927092 12.0109362 -6 9 C-6 7.68 -6 6.36 -6 5 C-4.68 5.33 -3.36 5.66 -2 6 C-1.34 4.02 -0.68 2.04 0 0 Z " fill="#5DB382" transform="translate(69,214)"/>
<path d="M0 0 C0.66 0.495 1.32 0.99 2 1.5 C6.04779924 3.52389962 8.49570147 3.36324988 13 3 C13.99 2.34 14.98 1.68 16 1 C18.4375 1.0625 18.4375 1.0625 21 2 C23.3125 4.5625 23.3125 4.5625 25 7 C23.2696998 11.05725564 21.47962554 12.4178247 17.55078125 14.2421875 C10.36315662 16.37756143 2.92494278 15.59945299 -4 13 C-3.34 12.34 -2.68 11.68 -2 11 C1.21877899 11.29803509 4.24923209 11.8024295 7.375 12.625 C7.91125 12.74875 8.4475 12.8725 9 13 C9.33 12.67 9.66 12.34 10 12 C12.67058851 11.85884839 15.32432238 11.95752893 18 12 C18.12375 11.236875 18.2475 10.47375 18.375 9.6875 C19 7 19 7 21 4 C20.34 4 19.68 4 19 4 C18.67 4.66 18.34 5.32 18 6 C17.34 6 16.68 6 16 6 C15.01 6.495 15.01 6.495 14 7 C11.783481 6.75213734 9.57498848 6.42916475 7.375 6.0625 C6.18648438 5.86785156 4.99796875 5.67320312 3.7734375 5.47265625 C2.85820312 5.31667969 1.94296875 5.16070312 1 5 C0.67 3.35 0.34 1.7 0 0 Z " fill="#59AA86" transform="translate(268,199)"/>
<path d="M0 0 C8.28381276 -0.63630994 14.43974658 -0.84485727 21.23046875 4.296875 C23.08473964 6.08155957 24.58755504 7.84853585 26 10 C26 10.66 26 11.32 26 12 C24.68 11.67 23.36 11.34 22 11 C22 12.32 22 13.64 22 15 C19.59940183 16.20029908 18.10639351 16.11459743 15.4296875 16.09765625 C14.53378906 16.09443359 13.63789063 16.09121094 12.71484375 16.08789062 C11.77769531 16.07951172 10.84054687 16.07113281 9.875 16.0625 C8.93011719 16.05798828 7.98523438 16.05347656 7.01171875 16.04882812 C4.67441613 16.03702357 2.33723939 16.02055759 0 16 C0 15.67 0 15.34 0 15 C6.435 14.505 6.435 14.505 13 14 C11.21342243 11.78629949 11.21342243 11.78629949 8.8359375 11.8046875 C8.02382813 11.82789063 7.21171875 11.85109375 6.375 11.875 C5.14910156 11.90207031 5.14910156 11.90207031 3.8984375 11.9296875 C2.95871094 11.96449219 2.95871094 11.96449219 2 12 C2 11.34 2 10.68 2 10 C5.96 10 9.92 10 14 10 C14.66 11.32 15.32 12.64 16 14 C17.31626692 10.38026598 18 7.90432869 18 4 C15.36 3.67 12.72 3.34 10 3 C10 2.34 10 1.68 10 1 C6.7 1 3.4 1 0 1 C0 0.67 0 0.34 0 0 Z " fill="#6EBD9A" transform="translate(268,174)"/>
<path d="M0 0 C0.66 0 1.32 0 2 0 C1.67 3.63 1.34 7.26 1 11 C2.65 11 4.3 11 6 11 C6.38218767 12.65614657 6.71395102 14.32457024 7 16 C4.95733571 18.04266429 0.86308566 17.18507944 -1.9375 17.1875 C-2.67935547 17.19974609 -3.42121094 17.21199219 -4.18554688 17.22460938 C-6.12513629 17.22988478 -8.0642371 17.12188902 -10 17 C-10.66 16.34 -11.32 15.68 -12 15 C-10.02 14.34 -8.04 13.68 -6 13 C-8.97 12.505 -8.97 12.505 -12 12 C-12 11.67 -12 11.34 -12 11 C-10.35 11 -8.7 11 -7 11 C-6.67 9.68 -6.34 8.36 -6 7 C-3.525 7.99 -3.525 7.99 -1 9 C-0.67 6.03 -0.34 3.06 0 0 Z " fill="#93C982" transform="translate(120,194)"/>
<path d="M0 0 C0.51046875 0.14308594 1.0209375 0.28617188 1.546875 0.43359375 C4.75951851 1.17536654 7.98459091 1.60897096 11.25 2.0625 C12.51328125 2.23910156 13.7765625 2.41570312 15.078125 2.59765625 C16.52445312 2.79681641 16.52445312 2.79681641 18 3 C18 3.33 18 3.66 18 4 C15.36 4.33 12.72 4.66 10 5 C10.061875 5.78375 10.12375 6.5675 10.1875 7.375 C10.125625 8.24125 10.06375 9.1075 10 10 C7 12 7 12 4.0625 11.6875 C-0.71929825 10.61403509 -0.71929825 10.61403509 -3 10 C-2.25 3.375 -2.25 3.375 0 0 Z " fill="#4D5965" transform="translate(483,201)"/>
<path d="M0 0 C4.29 0 8.58 0 13 0 C13 0.33 13 0.66 13 1 C9.7 1 6.4 1 3 1 C2.67 16.18 2.34 31.36 2 47 C2.99 47.33 3.98 47.66 5 48 C5 48.33 5 48.66 5 49 C3.35 49 1.7 49 0 49 C0 32.83 0 16.66 0 0 Z " fill="#4F5964" transform="translate(391,164)"/>
<path d="M0 0 C2.31 0.33 4.62 0.66 7 1 C6.01 1.495 6.01 1.495 5 2 C5.20625 2.61875 5.4125 3.2375 5.625 3.875 C5.74875 4.57625 5.8725 5.2775 6 6 C5.34 6.66 4.68 7.32 4 8 C3.01 8 2.02 8 1 8 C0.67 8.99 0.34 9.98 0 11 C4.29 11 8.58 11 13 11 C13 11.33 13 11.66 13 12 C3.7708261 13.70157114 -5.09076115 12.78962056 -13.15625 7.6171875 C-14.8125 6.25 -14.8125 6.25 -17 4 C-15.68 3.34 -14.36 2.68 -13 2 C-12.5875 2.639375 -12.175 3.27875 -11.75 3.9375 C-9.74618826 6.29913526 -9.01604979 6.65031307 -6 7 C-3.81482513 6.26862517 -3.81482513 6.26862517 -1.75 5.0625 C-1.04359375 4.68222656 -0.3371875 4.30195313 0.390625 3.91015625 C1.18726563 3.45962891 1.18726563 3.45962891 2 3 C1.34 2.01 0.68 1.02 0 0 Z " fill="#5BB68D" transform="translate(196,202)"/>
<path d="M0 0 C-1.32 0.33 -2.64 0.66 -4 1 C-3.67 1.66 -3.34 2.32 -3 3 C-2.95977609 5.3329866 -2.95679753 7.66706666 -3 10 C-2.113125 9.814375 -1.22625 9.62875 -0.3125 9.4375 C2.85178811 9.01957516 4.94839642 9.19222258 8 10 C8 6.7 8 3.4 8 0 C8.66 0.33 9.32 0.66 10 1 C9.67 3.97 9.34 6.94 9 10 C10.65 10 12.3 10 14 10 C14 10.33 14 10.66 14 11 C4.1 11 -5.8 11 -16 11 C-16 10.67 -16 10.34 -16 10 C-14.02 10 -12.04 10 -10 10 C-10.33 7.36 -10.66 4.72 -11 2 C-10.01 2 -9.02 2 -8 2 C-4.77208445 -0.1519437 -3.71599191 -0.20086443 0 0 Z " fill="#99D2A1" transform="translate(98,211)"/>
<path d="M0 0 C6.44754464 0.60825893 6.44754464 0.60825893 8.71875 2.21875 C10.45712849 4.6355201 10.30219334 6.24370434 10.1875 9.1875 C10.16042969 10.08855469 10.13335937 10.98960937 10.10546875 11.91796875 C10.07066406 12.60503906 10.03585938 13.29210937 10 14 C10.66 14 11.32 14 12 14 C12.06058594 14.67546875 12.12117188 15.3509375 12.18359375 16.046875 C12.26738281 16.93890625 12.35117187 17.8309375 12.4375 18.75 C12.55931641 20.07257813 12.55931641 20.07257813 12.68359375 21.421875 C13.10459779 24.85227827 13.91135852 27.76362273 15.125 31 C15.98930965 33.96334738 16.2363432 35.21822779 15 38 C14.01 38.495 14.01 38.495 13 39 C12.00057578 34.19501746 11.00372523 29.38951102 10.00927734 24.58349609 C9.67047031 22.94793194 9.33095501 21.31251434 8.99072266 19.67724609 C8.50237628 17.32948173 8.01656256 14.98120561 7.53125 12.6328125 C7.30157532 11.53273361 7.30157532 11.53273361 7.06726074 10.41043091 C6 5.22774341 6 5.22774341 6 3 C4.02 2.34 2.04 1.68 0 1 C0 0.67 0 0.34 0 0 Z " fill="#55AB82" transform="translate(49,179)"/>
<path d="M0 0 C0.33 1.32 0.66 2.64 1 4 C-1.97 3.505 -1.97 3.505 -5 3 C-5 4.65 -5 6.3 -5 8 C-3.68 7.67 -2.36 7.34 -1 7 C-0.67 7.99 -0.34 8.98 0 10 C-0.91523438 9.98839844 -1.83046875 9.97679687 -2.7734375 9.96484375 C-3.96195312 9.95582031 -5.15046875 9.94679687 -6.375 9.9375 C-8.15003906 9.92009766 -8.15003906 9.92009766 -9.9609375 9.90234375 C-12.91921521 9.78533407 -12.91921521 9.78533407 -15 11 C-15 10.34 -15 9.68 -15 9 C-15.99 8.67 -16.98 8.34 -18 8 C-17.34 7.34 -16.68 6.68 -16 6 C-15.67 5.01 -15.34 4.02 -15 3 C-11.71480525 1.90493508 -9.26336585 1.90039392 -5.8125 1.9375 C-4.18248047 1.95103516 -4.18248047 1.95103516 -2.51953125 1.96484375 C-1.68808594 1.97644531 -0.85664063 1.98804688 0 2 C0 1.34 0 0.68 0 0 Z " fill="#303C49" transform="translate(464,188)"/>
<path d="M0 0 C0.66 0 1.32 0 2 0 C2 0.66 2 1.32 2 2 C2.99 2.33 3.98 2.66 5 3 C5.33 5.31 5.66 7.62 6 10 C6.99 10.33 7.98 10.66 9 11 C8.625 12.9375 8.625 12.9375 8 15 C3.42337784 17.28831108 -2.97497292 16.18502705 -8 16.1875 C-9.3096875 16.19974609 -10.619375 16.21199219 -11.96875 16.22460938 C-13.84046875 16.22750977 -13.84046875 16.22750977 -15.75 16.23046875 C-16.89984375 16.23457764 -18.0496875 16.23868652 -19.234375 16.24291992 C-22 16 -22 16 -24 14 C-23.67 13.01 -23.34 12.02 -23 11 C-23 11.66 -23 12.32 -23 13 C-13.43 12.67 -3.86 12.34 6 12 C3.03 6.06 3.03 6.06 0 0 Z " fill="#63AF8C" transform="translate(112,152)"/>
<path d="M0 0 C0.99 0.495 0.99 0.495 2 1 C1.67 1.66 1.34 2.32 1 3 C6.28 3 11.56 3 17 3 C17 3.66 17 4.32 17 5 C15.02 5.33 13.04 5.66 11 6 C11.5775 6.28875 12.155 6.5775 12.75 6.875 C14.83333333 7.91666667 16.91666667 8.95833333 19 10 C15.45049966 11.16306443 12.44176052 10.92365049 8.75 10.5625 C7.67234375 10.46066406 6.5946875 10.35882813 5.484375 10.25390625 C4.66453125 10.17011719 3.8446875 10.08632812 3 10 C3 9.34 3 8.68 3 8 C2.34 7.67 1.68 7.34 1 7 C0.59270772 4.67843403 0.25561323 2.3431213 0 0 Z " fill="#4AAB7F" transform="translate(310,187)"/>
<path d="M0 0 C2.0625 1.75 2.0625 1.75 4 4 C3.8203125 6 3.8203125 6 3 8 C-3.88441522 12.85958721 -10.78235306 12.80172165 -19 12 C-22.10065099 11.32216197 -24.15986964 10.50359843 -27 9 C-27.33 8.01 -27.66 7.02 -28 6 C-23.39726027 6.76712329 -23.39726027 6.76712329 -21.1875 8.0625 C-16.39054523 10.11833776 -10.9453294 9.11269911 -6 8 C-3.33693529 7.63026869 -0.67010126 7.31679168 2 7 C2 6.01 2 5.02 2 4 C1.01 3.67 0.02 3.34 -1 3 C-0.67 2.01 -0.34 1.02 0 0 Z " fill="#6AB091" transform="translate(332,202)"/>
<path d="M0 0 C0.33 0 0.66 0 1 0 C1.89587605 12.3502912 2.11522956 24.61922367 2 37 C3.6254308 36.85904936 5.25034051 36.71207913 6.875 36.5625 C7.77992188 36.48128906 8.68484375 36.40007812 9.6171875 36.31640625 C12.01110861 36.13010715 12.01110861 36.13010715 14 35 C13.67 36.32 13.34 37.64 13 39 C11.02090602 39.02686553 9.04171029 39.04633375 7.0625 39.0625 C5.96035156 39.07410156 4.85820312 39.08570313 3.72265625 39.09765625 C1 39 1 39 0 38 C-0.08861992 35.1883662 -0.11522355 32.40141745 -0.09765625 29.58984375 C-0.0962413 28.74780899 -0.09482635 27.90577423 -0.09336853 27.03822327 C-0.08775263 24.33794665 -0.07519748 21.63775172 -0.0625 18.9375 C-0.05748705 17.11132932 -0.05292379 15.28515734 -0.04882812 13.45898438 C-0.03777804 8.97262458 -0.02050279 4.48632616 0 0 Z " fill="#94C7B0" transform="translate(343,175)"/>
<path d="M0 0 C0.33 0 0.66 0 1 0 C0.51679152 6.2054142 -0.33318124 11.99945246 -2 18 C-2.66 18 -3.32 18 -4 18 C-4.33 17.01 -4.66 16.02 -5 15 C-5.66 14.67 -6.32 14.34 -7 14 C-7.33 15.65 -7.66 17.3 -8 19 C-8.99 19 -9.98 19 -11 19 C-10.67 16.36 -10.34 13.72 -10 11 C-11.32 10.67 -12.64 10.34 -14 10 C-14 9.34 -14 8.68 -14 8 C-12.68 8 -11.36 8 -10 8 C-9.67 6.68 -9.34 5.36 -9 4 C-8.34 4 -7.68 4 -7 4 C-7.33 6.97 -7.66 9.94 -8 13 C-3.87596527 11.35143175 -3.87596527 11.35143175 -2 8 C-1.63858045 5.67085177 -1.30300475 3.33746522 -1 1 C-0.67 0.67 -0.34 0.34 0 0 Z " fill="#67B68B" transform="translate(147,202)"/>
<path d="M0 0 C3.96 0 7.92 0 12 0 C12.33 0.99 12.66 1.98 13 3 C13.598125 2.484375 14.19625 1.96875 14.8125 1.4375 C15.534375 0.963125 16.25625 0.48875 17 0 C17.99 0.33 18.98 0.66 20 1 C19.67 1.66 19.34 2.32 19 3 C17.66666667 3.33333333 16.33333333 3.66666667 15 4 C14.67 4.66 14.34 5.32 14 6 C13.01 6 12.02 6 11 6 C11 4.35 11 2.7 11 1 C7.7 1 4.4 1 1 1 C1 13.54 1 26.08 1 39 C4.96 39 8.92 39 13 39 C13 39.33 13 39.66 13 40 C8.71 40 4.42 40 0 40 C0 26.8 0 13.6 0 0 Z " fill="#96CDB5" transform="translate(228,174)"/>
<path d="M0 0 C-0.66 0.66 -1.32 1.32 -2 2 C-2.69748583 3.31747324 -3.36959957 4.64914193 -4 6 C-4.66 6 -5.32 6 -6 6 C-5.67 6.99 -5.34 7.98 -5 9 C-7.52788007 11.79872437 -9.20411134 13.45773019 -13 14 C-13.69507544 8.96070303 -13.69507544 8.96070303 -13 6 C-9.301571 1.69866408 -5.70590879 -0.3997134 0 0 Z " fill="#313E4C" transform="translate(452,190)"/>
<path d="M0 0 C3.96690692 3.37187088 6.3739564 8.12186919 8 13 C21.86 13.495 21.86 13.495 36 14 C36 14.33 36 14.66 36 15 C32.06782815 15.19255579 28.13529426 15.37122901 24.2019043 15.53710938 C22.20653467 15.6241695 20.21165305 15.72218873 18.21679688 15.8203125 C16.33637695 15.89765625 16.33637695 15.89765625 14.41796875 15.9765625 C13.26063232 16.02893066 12.1032959 16.08129883 10.91088867 16.13525391 C8 16 8 16 5 14 C4.01 14.33 3.02 14.66 2 15 C2.03255208 13.01432292 2.06510417 11.02864583 2.09765625 9.04296875 C2.08263217 6.79694539 2.08263217 6.79694539 1 4 C0.34 3.67 -0.32 3.34 -1 3 C-0.67 2.01 -0.34 1.02 0 0 Z " fill="#68B38F" transform="translate(120,151)"/>
<path d="M0 0 C1.2065625 0.0309375 1.2065625 0.0309375 2.4375 0.0625 C3.3013129 1.51514038 4.15330454 2.9748163 5 4.4375 C5.71349609 5.65566406 5.71349609 5.65566406 6.44140625 6.8984375 C6.77011719 7.61257812 7.09882812 8.32671875 7.4375 9.0625 C7.1075 9.7225 6.7775 10.3825 6.4375 11.0625 C5.7775 9.7425 5.1175 8.4225 4.4375 7.0625 C1.27634224 8.43233503 0.4447908 9.0515638 -1.5625 12.0625 C-4.62726484 6.79110447 -4.62726484 6.79110447 -4.3125 3.25 C-3.22518447 0.07866304 -3.22518447 0.07866304 0 0 Z " fill="#64B58E" transform="translate(112.5625,139.9375)"/>
<path d="M0 0 C2.9375 0.375 2.9375 0.375 6 1 C6.33 1.66 6.66 2.32 7 3 C6.00390625 5.3828125 6.00390625 5.3828125 4.5625 8.125 C4.08941406 9.03507813 3.61632812 9.94515625 3.12890625 10.8828125 C2.75636719 11.58148438 2.38382812 12.28015625 2 13 C1.67 12.34 1.34 11.68 1 11 C-1.52733235 10.34444881 -1.52733235 10.34444881 -4 10 C-3.01 9.34 -2.02 8.68 -1 8 C-1.99 7.67 -2.98 7.34 -4 7 C-3.67 5.35 -3.34 3.7 -3 2 C-2.34 2 -1.68 2 -1 2 C-0.67 1.34 -0.34 0.68 0 0 Z " fill="#485661" transform="translate(502,190)"/>
<path d="M0 0 C0.66 0.33 1.32 0.66 2 1 C2.02886751 5.14581887 2.04675327 9.29161216 2.0625 13.4375 C2.07087891 14.62150391 2.07925781 15.80550781 2.08789062 17.02539062 C2.09111328 18.15009766 2.09433594 19.27480469 2.09765625 20.43359375 C2.10289307 21.47572021 2.10812988 22.51784668 2.11352539 23.59155273 C2 26 2 26 1 27 C-1.01964199 27.07244053 -3.04167124 27.08377188 -5.0625 27.0625 C-6.16722656 27.05347656 -7.27195312 27.04445312 -8.41015625 27.03515625 C-9.69212891 27.01775391 -9.69212891 27.01775391 -11 27 C-11 26.34 -11 25.68 -11 25 C-7.37 25 -3.74 25 0 25 C0 16.75 0 8.5 0 0 Z " fill="#7EC0B1" transform="translate(382,187)"/>
<path d="M0 0 C1.98 0.66 3.96 1.32 6 2 C6.33 4.64 6.66 7.28 7 10 C6.278125 9.79375 5.55625 9.5875 4.8125 9.375 C1.55358415 8.94047789 -0.08304504 9.58319331 -3 11 C-3.75 8.875 -3.75 8.875 -4 6 C-2.0625 2.6875 -2.0625 2.6875 0 0 Z " fill="#313F4C" transform="translate(485,180)"/>
<path d="M0 0 C0.89203125 0.10183594 1.7840625 0.20367187 2.703125 0.30859375 C3.37859375 0.39238281 4.0540625 0.47617188 4.75 0.5625 C3.4375 2.5625 3.4375 2.5625 1.75 4.5625 C0.76 4.5625 -0.23 4.5625 -1.25 4.5625 C-1.58 5.2225 -1.91 5.8825 -2.25 6.5625 C-5.0625 7.4375 -5.0625 7.4375 -8.25 7.5625 C-10.625 5.625 -10.625 5.625 -12.25 3.5625 C-11.92 2.9025 -11.59 2.2425 -11.25 1.5625 C-10.59 1.8925 -9.93 2.2225 -9.25 2.5625 C-9.25 1.9025 -9.25 1.2425 -9.25 0.5625 C-5.98086376 -0.46865279 -3.38958652 -0.4013984 0 0 Z " fill="#33414F" transform="translate(454.25,205.4375)"/>
<path d="M0 0 C0.66 0.99 1.32 1.98 2 3 C1.34513173 4.67133772 0.67658268 6.33733404 0 8 C-0.02920459 11.13388899 -0.02920459 11.13388899 0.375 14.3125 C0.48585938 15.38113281 0.59671875 16.44976562 0.7109375 17.55078125 C0.85402344 18.76314453 0.85402344 18.76314453 1 20 C1.99 20.33 2.98 20.66 4 21 C4.5625 22.9375 4.5625 22.9375 5 25 C5.66 25.66 6.32 26.32 7 27 C6.01 27 5.02 27 4 27 C-1.34320499 21.32284469 -3.51444901 16.12862488 -3.3046875 8.4140625 C-2.89635394 5.1788043 -1.73042834 2.73984487 0 0 Z " fill="#61B090" transform="translate(257,183)"/>
<path d="M0 0 C6.0546875 -0.1953125 6.0546875 -0.1953125 8 0 C10.35953094 2.35953094 10.49141413 3.77895617 11 7 C6.35150485 9.3992233 2.08913926 9.19957409 -3 9 C-3 8.34 -3 7.68 -3 7 C-2.01 7 -1.02 7 0 7 C0.33 6.01 0.66 5.02 1 4 C3.5625 2.8125 3.5625 2.8125 6 2 C3.03 1.505 3.03 1.505 0 1 C0 0.67 0 0.34 0 0 Z " fill="#4D5965" transform="translate(452,205)"/>
<path d="M0 0 C-0.99 0.33 -1.98 0.66 -3 1 C-3 2.32 -3 3.64 -3 5 C-5.97 5 -8.94 5 -12 5 C-9.76121784 0.52243569 -4.63674314 -0.40912439 0 0 Z M-7 5 C-5 6 -5 6 -2 8 C0.32387947 8.39387788 2.65793749 8.73486085 5 9 C5 9.33 5 9.66 5 10 C3.56342755 10.33730842 2.12569907 10.66969591 0.6875 11 C-0.51326172 11.2784375 -0.51326172 11.2784375 -1.73828125 11.5625 C-4 12 -4 12 -7 12 C-7.33 11.34 -7.66 10.68 -8 10 C-8.99 9.67 -9.98 9.34 -11 9 C-9.68 8.34 -8.36 7.68 -7 7 C-7 6.34 -7 5.68 -7 5 Z " fill="#55616C" transform="translate(577,174)"/>
<path d="M0 0 C1.32 0.33 2.64 0.66 4 1 C3.35256836 1.38969971 2.70513672 1.77939941 2.03808594 2.1809082 C-0.19860416 3.82525007 -0.19860416 3.82525007 -0.54589844 6.36010742 C-0.5668457 7.26607666 -0.58779297 8.1720459 -0.609375 9.10546875 C-0.64160156 10.08837891 -0.67382812 11.07128906 -0.70703125 12.08398438 C-0.72121094 13.10814453 -0.73539063 14.13230469 -0.75 15.1875 C-0.77964844 16.22326172 -0.80929688 17.25902344 -0.83984375 18.32617188 C-0.91057245 20.88419312 -0.96325257 23.44130158 -1 26 C-1.33 26 -1.66 26 -2 26 C-2.33 21.71 -2.66 17.42 -3 13 C-3.33 17.29 -3.66 21.58 -4 26 C-4.33 26 -4.66 26 -5 26 C-5.13587049 22.9776364 -5.23450542 19.96146112 -5.3125 16.9375 C-5.35439453 16.08994141 -5.39628906 15.24238281 -5.43945312 14.36914062 C-5.56379436 7.92826486 -4.20618215 4.88182086 0 0 Z " fill="#8BCAAA" transform="translate(243,186)"/>
<path d="M0 0 C0.08159574 4.16138263 -0.01751476 7.9472484 -1 12 C-1.66 12 -2.32 12 -3 12 C-3 11.34 -3 10.68 -3 10 C-3.99 10.33 -4.98 10.66 -6 11 C-7 10 -7 10 -7.125 7.0625 C-7 4 -7 4 -6 2 C-6.99 1.67 -7.98 1.34 -9 1 C-2.25 0 -2.25 0 0 0 Z " fill="#92BF87" transform="translate(135,194)"/>
<path d="M0 0 C2.84574968 1.27568089 5.18089981 2.41496289 7 5 C6.6875 7.6875 6.6875 7.6875 6 10 C3.03 9.505 3.03 9.505 0 9 C-0.33 9.66 -0.66 10.32 -1 11 C-1.99 10.34 -2.98 9.68 -4 9 C-3 7 -3 7 0 6 C0 5.34 0 4.68 0 4 C-1.65 4 -3.3 4 -5 4 C-3.35 2.68 -1.7 1.36 0 0 Z " fill="#57626E" transform="translate(589,200)"/>
<path d="M0 0 C0.66 0.99 1.32 1.98 2 3 C-1.31273002 4.98979232 -3.73582051 5.21655477 -7.5703125 5.125 C-8.63121094 5.10953125 -9.69210938 5.0940625 -10.78515625 5.078125 C-11.88730469 5.05234375 -12.98945312 5.0265625 -14.125 5 C-16.31490975 4.94913102 -18.50504596 4.90701364 -20.6953125 4.875 C-21.66484863 4.85179687 -22.63438477 4.82859375 -23.63330078 4.8046875 C-26.1899411 4.75890465 -26.1899411 4.75890465 -28 7 C-28.99 7 -29.98 7 -31 7 C-31 10.3 -31 13.6 -31 17 C-31.33 17 -31.66 17 -32 17 C-32.10815225 15.23050905 -32.18566083 13.45912513 -32.25 11.6875 C-32.29640625 10.70136719 -32.3428125 9.71523437 -32.390625 8.69921875 C-32 6 -32 6 -30.36914062 4.36328125 C-27.34258775 2.62170342 -25.18546855 2.57041199 -21.703125 2.48828125 C-20.49785156 2.45283203 -19.29257812 2.41738281 -18.05078125 2.38085938 C-16.16939453 2.34702148 -16.16939453 2.34702148 -14.25 2.3125 C-12.98027344 2.27833984 -11.71054688 2.24417969 -10.40234375 2.20898438 C-7.26831726 2.12650999 -4.13457045 2.05735516 -1 2 C-0.67 1.34 -0.34 0.68 0 0 Z " fill="#73B191" transform="translate(80,162)"/>
<path d="M0 0 C0.66 0 1.32 0 2 0 C1.67 3.63 1.34 7.26 1 11 C2.65 11 4.3 11 6 11 C5.67 11.66 5.34 12.32 5 13 C-0.61 12.67 -6.22 12.34 -12 12 C-12 11.67 -12 11.34 -12 11 C-10.35 11 -8.7 11 -7 11 C-6.67 9.68 -6.34 8.36 -6 7 C-3.525 7.99 -3.525 7.99 -1 9 C-0.67 6.03 -0.34 3.06 0 0 Z " fill="#B0CDA5" transform="translate(120,194)"/>
<path d="M0 0 C1.75 1.3125 1.75 1.3125 3 3 C3 3.99 3 4.98 3 6 C-0.3 6.66 -3.6 7.32 -7 8 C-7.33 6.68 -7.66 5.36 -8 4 C-5.32518618 0.43358158 -4.60293628 0 0 0 Z " fill="#46B280" transform="translate(331,203)"/>
<path d="M0 0 C0.33 0 0.66 0 1 0 C1.33 2.64 1.66 5.28 2 8 C1.34 8 0.68 8 0 8 C-0.33 8.66 -0.66 9.32 -1 10 C-4.63 10 -8.26 10 -12 10 C-12 9.67 -12 9.34 -12 9 C-9.69 9 -7.38 9 -5 9 C-5.33 6.36 -5.66 3.72 -6 1 C-4.7934375 1.0309375 -4.7934375 1.0309375 -3.5625 1.0625 C-1.06645115 1.29633621 -1.06645115 1.29633621 0 0 Z " fill="#A6CF96" transform="translate(92,196)"/>
<path d="M0 0 C0.94875 0.350625 1.8975 0.70125 2.875 1.0625 C2.875 1.7225 2.875 2.3825 2.875 3.0625 C3.535 3.0625 4.195 3.0625 4.875 3.0625 C4.875 4.0525 4.875 5.0425 4.875 6.0625 C2.235 6.0625 -0.405 6.0625 -3.125 6.0625 C-3.125 8.7025 -3.125 11.3425 -3.125 14.0625 C-3.455 14.0625 -3.785 14.0625 -4.125 14.0625 C-4.455 9.4425 -4.785 4.8225 -5.125 0.0625 C-3.125 -0.9375 -3.125 -0.9375 0 0 Z " fill="#A1CA91" transform="translate(110.125,190.9375)"/>
<path d="M0 0 C1.9375 1.375 1.9375 1.375 3.9375 6.375 C-0.0225 6.375 -3.9825 6.375 -8.0625 6.375 C-8.3925 5.385 -8.7225 4.395 -9.0625 3.375 C-8.0725 3.045 -7.0825 2.715 -6.0625 2.375 C-5.7325 1.715 -5.4025 1.055 -5.0625 0.375 C-2.0625 -0.625 -2.0625 -0.625 0 0 Z " fill="#37414E" transform="translate(555.0625,206.625)"/>
<path d="M0 0 C0.66 0 1.32 0 2 0 C1.68950274 1.43793392 1.3765224 2.8753318 1.0625 4.3125 C0.88847656 5.11300781 0.71445313 5.91351563 0.53515625 6.73828125 C0 9 0 9 -1 12 C-2.65 12.33 -4.3 12.66 -6 13 C-5.67 10.36 -5.34 7.72 -5 5 C-4.34 5 -3.68 5 -3 5 C-3 4.34 -3 3.68 -3 3 C-2.34 3 -1.68 3 -1 3 C-0.67 2.01 -0.34 1.02 0 0 Z " fill="#46B07D" transform="translate(94,143)"/>
<path d="M0 0 C1.97909398 -0.02686553 3.95828971 -0.04633375 5.9375 -0.0625 C7.03964844 -0.07410156 8.14179688 -0.08570313 9.27734375 -0.09765625 C12 0 12 0 13 1 C13.26293056 5.03160191 13.29404844 6.55892734 11 10 C10.01 9.67 9.02 9.34 8 9 C7.67 6.36 7.34 3.72 7 1 C4.69 1 2.38 1 0 1 C0 0.67 0 0.34 0 0 Z " fill="#88C388" transform="translate(124,181)"/>
<path d="M0 0 C0.66 0.99 1.32 1.98 2 3 C1.319375 4.36125 1.319375 4.36125 0.625 5.75 C-2.23899997 11.56631713 -1.21990389 18.67165483 -1 25 C-3.9340359 19.23927098 -5.06747259 14.05377628 -3.36328125 7.58203125 C-1.32355542 1.32355542 -1.32355542 1.32355542 0 0 Z " fill="#85C8A8" transform="translate(177,175)"/>
<path d="M0 0 C0 1.32 0 2.64 0 4 C0.66 4 1.32 4 2 4 C2.33 3.01 2.66 2.02 3 1 C3 2.32 3 3.64 3 5 C2.01 5.66 1.02 6.32 0 7 C-1.20450304 9.55183404 -1.20450304 9.55183404 -2 12 C-2.99 12 -3.98 12 -5 12 C-4.88648483 10.18674449 -4.75887039 8.37436643 -4.625 6.5625 C-4.55539063 5.55316406 -4.48578125 4.54382813 -4.4140625 3.50390625 C-4.27742187 2.67761719 -4.14078125 1.85132813 -4 1 C-2 0 -2 0 0 0 Z " fill="#4BAF7A" transform="translate(148,182)"/>
<path d="M0 0 C-0.66 0 -1.32 0 -2 0 C-2.268125 0.969375 -2.53625 1.93875 -2.8125 2.9375 C-3.204375 3.948125 -3.59625 4.95875 -4 6 C-4.99 6.33 -5.98 6.66 -7 7 C-7.66 6.67 -8.32 6.34 -9 6 C-10.32 7.65 -11.64 9.3 -13 11 C-12.73916266 7.17438563 -12.48580286 5.47267306 -9.6875 2.75 C-3.61417323 -1.20472441 -3.61417323 -1.20472441 0 0 Z " fill="#58646E" transform="translate(494,175)"/>
<path d="M0 0 C1.32 0.33 2.64 0.66 4 1 C4 2.98 4 4.96 4 7 C3.01 6.67 2.02 6.34 1 6 C1.33 6.99 1.66 7.98 2 9 C-0.97 8.67 -3.94 8.34 -7 8 C-6 6 -6 6 -4.0625 5.125 C-1.57998766 3.77090236 -1.03128603 2.57821507 0 0 Z " fill="#303E4E" transform="translate(582,175)"/>
<path d="M0 0 C0.33 0 0.66 0 1 0 C1.80696444 4.97735667 2.16228817 9.75500765 2.1875 14.8125 C2.20167969 16.11832031 2.21585937 17.42414063 2.23046875 18.76953125 C2 22 2 22 0 24 C-0.19682269 20.56296699 -0.38085152 17.12536573 -0.5625 13.6875 C-0.61857422 12.71103516 -0.67464844 11.73457031 -0.73242188 10.72851562 C-0.78076172 9.79072266 -0.82910156 8.85292969 -0.87890625 7.88671875 C-0.9260376 7.02264404 -0.97316895 6.15856934 -1.02172852 5.26831055 C-1 3 -1 3 0 0 Z " fill="#4C977A" transform="translate(355,188)"/>
<path d="M0 0 C1.33333333 2.66666667 2.66666667 5.33333333 4 8 C4.66 8 5.32 8 6 8 C6 8.66 6 9.32 6 10 C0.93767116 10.48990279 -3.32630846 8.7106322 -8 7 C-7.67 5.68 -7.34 4.36 -7 3 C-7 3.66 -7 4.32 -7 5 C-4.69 5.33 -2.38 5.66 0 6 C0 4.02 0 2.04 0 0 Z " fill="#ADCFA3" transform="translate(85,184)"/>
<path d="M0 0 C-2 2 -2 2 -4 2.375 C-6.17066115 2.80329816 -6.17066115 2.80329816 -7.0625 4.875 C-7.5265625 5.926875 -7.5265625 5.926875 -8 7 C-9.625 8.75 -9.625 8.75 -11 10 C-11.66 9.67 -12.32 9.34 -13 9 C-12.60888843 6.59157615 -12.2758363 5.28176826 -10.546875 3.515625 C-4.57204433 -0.69273399 -4.57204433 -0.69273399 0 0 Z " fill="#545E67" transform="translate(452,190)"/>
<path d="M0 0 C1.65 0 3.3 0 5 0 C5 3.96 5 7.92 5 12 C1.37 12.33 -2.26 12.66 -6 13 C-5.34 11.02 -4.68 9.04 -4 7 C-3.34 7 -2.68 7 -2 7 C-1.67 7.99 -1.34 8.98 -1 10 C1.01508358 10.73323796 1.01508358 10.73323796 3 11 C2.67 10.01 2.34 9.02 2 8 C2.59793673 5.64811553 3.25881795 3.31074405 4 1 C2.68 0.67 1.36 0.34 0 0 Z " fill="#56AD83" transform="translate(248,174)"/>
<path d="M0 0 C1.57043101 0.01330874 3.14079971 0.03717648 4.7109375 0.0703125 C5.51273438 0.07933594 6.31453125 0.08835938 7.140625 0.09765625 C9.12252273 0.12125027 11.10426731 0.15712185 13.0859375 0.1953125 C11.0859375 2.1953125 11.0859375 2.1953125 8.84375 2.28515625 C7.09358004 2.18388529 5.34357423 2.07973505 3.59375 1.97265625 C0.56275807 2.24176301 -0.61142708 3.28641777 -2.9140625 5.1953125 C-3.5740625 5.1953125 -4.2340625 5.1953125 -4.9140625 5.1953125 C-5.2440625 4.2053125 -5.5740625 3.2153125 -5.9140625 2.1953125 C-3.9140625 0.1953125 -3.9140625 0.1953125 0 0 Z " fill="#303E4B" transform="translate(573.9140625,189.8046875)"/>
<path d="M0 0 C2 1.375 2 1.375 4 3 C4 3.66 4 4.32 4 5 C3.34 5 2.68 5 2 5 C2.33 7.31 2.66 9.62 3 12 C2.01 12 1.02 12 0 12 C-2.46449704 4.46153846 -2.46449704 4.46153846 -1 1 C-0.67 0.67 -0.34 0.34 0 0 Z " fill="#45B47E" transform="translate(64,201)"/>
<path d="M0 0 C1.5 1.375 1.5 1.375 3 3 C3 3.66 3 4.32 3 5 C2.34 5 1.68 5 1 5 C0.67 5.66 0.34 6.32 0 7 C-0.99 6.67 -1.98 6.34 -3 6 C-3.33 6.99 -3.66 7.98 -4 9 C-4.33 8.01 -4.66 7.02 -5 6 C-6.49985609 4.33289654 -6.49985609 4.33289654 -8 3 C-7.01 2.34 -6.02 1.68 -5 1 C-5 1.66 -5 2.32 -5 3 C-3.35 3 -1.7 3 0 3 C0 2.01 0 1.02 0 0 Z " fill="#8EC07D" transform="translate(91,191)"/>
<path d="M0 0 C0.33 0.66 0.66 1.32 1 2 C1.66 2 2.32 2 3 2 C3 2.99 3 3.98 3 5 C-1.64849515 7.3992233 -5.91086074 7.19957409 -11 7 C-11 6.34 -11 5.68 -11 5 C-9.01432292 4.77213542 -7.02864583 4.54427083 -5.04296875 4.31640625 C-2.80603607 4.02829265 -2.80603607 4.02829265 0 3 C0 2.01 0 1.02 0 0 Z " fill="#515B63" transform="translate(626,207)"/>
<path d="M0 0 C2.50037734 2.17424117 3.43628586 3.73045798 4 7 C0.625 7.1875 0.625 7.1875 -3 7 C-3.66 6.01 -4.32 5.02 -5 4 C-4.67 3.01 -4.34 2.02 -4 1 C-4 1.66 -4 2.32 -4 3 C-2.68 2.67 -1.36 2.34 0 2 C0 1.34 0 0.68 0 0 Z " fill="#3B4956" transform="translate(486,188)"/>
<path d="M0 0 C1.67542976 0.28604898 3.34385343 0.61781233 5 1 C4.67 3.31 4.34 5.62 4 8 C2.68 7.67 1.36 7.34 0 7 C-0.38133299 5.0085944 -0.71325582 3.00720923 -1 1 C-0.67 0.67 -0.34 0.34 0 0 Z " fill="#8FC483" transform="translate(86,181)"/>
<path d="M0 0 C0.66 0.33 1.32 0.66 2 1 C3.08209933 5.68909708 3.21980248 8.69097166 1 13 C-0.32 12.34 -1.64 11.68 -3 11 C-2.67 10.46375 -2.34 9.9275 -2 9.375 C-0.77537082 6.46650569 -0.93051908 4.12664129 -1 1 C-0.67 0.67 -0.34 0.34 0 0 Z " fill="#6EB796" transform="translate(157,167)"/>
<path d="M0 0 C0.66 0 1.32 0 2 0 C2.33 0.66 2.66 1.32 3 2 C3.66 1.34 4.32 0.68 5 0 C5.125 4.75 5.125 4.75 4 7 C1.69 6.67 -0.62 6.34 -3 6 C-3 6.66 -3 7.32 -3 8 C-4.32 7.34 -5.64 6.68 -7 6 C-7 5.67 -7 5.34 -7 5 C-4.36 4.67 -1.72 4.34 1 4 C0.67 2.68 0.34 1.36 0 0 Z " fill="#A5CF99" transform="translate(75,200)"/>
<path d="M0 0 C0.33 0 0.66 0 1 0 C1.1799928 5.21979128 0.97094808 9.07262981 -1 14 C-1.99 14 -2.98 14 -4 14 C-3.67 12.02 -3.34 10.04 -3 8 C-3.99 7.67 -4.98 7.34 -6 7 C-4.35 7 -2.7 7 -1 7 C-0.67 4.69 -0.34 2.38 0 0 Z " fill="#8AC592" transform="translate(143,183)"/>
<path d="M0 0 C0.66 0.99 1.32 1.98 2 3 C1.01 4.485 1.01 4.485 0 6 C-0.4603764 9.19806665 -0.4603764 9.19806665 -0.625 12.6875 C-0.69976562 13.86699219 -0.77453125 15.04648438 -0.8515625 16.26171875 C-0.90054687 17.16535156 -0.94953125 18.06898438 -1 19 C-3.83320671 14.75018994 -3.53392409 10.99102956 -3 6 C-1.5 2.375 -1.5 2.375 0 0 Z " fill="#84BEA2" transform="translate(257,183)"/>
<path d="M0 0 C2.475 0.99 2.475 0.99 5 2 C4.5206753 6.31392226 3.2542015 8.16569547 0 11 C-0.66 10.34 -1.32 9.68 -2 9 C-1.34 9 -0.68 9 0 9 C0.84454356 5.62182575 1.10844919 3.32534757 0 0 Z " fill="#656D75" transform="translate(508,176)"/>
<path d="M0 0 C0.99 0.33 1.98 0.66 3 1 C2.67 2.65 2.34 4.3 2 6 C0.35 6 -1.3 6 -3 6 C-3.33 4.35 -3.66 2.7 -4 1 C-2.68 1.33 -1.36 1.66 0 2 C0 1.34 0 0.68 0 0 Z " fill="#83BC7B" transform="translate(72,206)"/>
<path d="M0 0 C6.75 0.75 6.75 0.75 9 3 C9.1953125 5.8203125 9.1953125 5.8203125 9.125 9.125 C9.10695313 10.22070312 9.08890625 11.31640625 9.0703125 12.4453125 C9.04710937 13.28835937 9.02390625 14.13140625 9 15 C8.67 15 8.34 15 8 15 C7.34 11.04 6.68 7.08 6 3 C4.02 2.34 2.04 1.68 0 1 C0 0.67 0 0.34 0 0 Z " fill="#81BEA4" transform="translate(49,179)"/>
<path d="M0 0 C1.45986328 0.11794922 1.45986328 0.11794922 2.94921875 0.23828125 C4.11904297 0.46064453 4.11904297 0.46064453 5.3125 0.6875 C5.6425 1.3475 5.9725 2.0075 6.3125 2.6875 C0.7025 2.6875 -4.9075 2.6875 -10.6875 2.6875 C-9.6875 0.6875 -9.6875 0.6875 -7.98046875 0.04296875 C-5.22505772 -0.38419037 -2.77628751 -0.24834615 0 0 Z " fill="#2F3943" transform="translate(411.6875,170.3125)"/>
<path d="M0 0 C0.33 0.66 0.66 1.32 1 2 C1.66 2 2.32 2 3 2 C2.34 4.64 1.68 7.28 1 10 C-0.32 9.67 -1.64 9.34 -3 9 C-3 7.68 -3 6.36 -3 5 C-2.01 4.34 -1.02 3.68 0 3 C0 2.01 0 1.02 0 0 Z " fill="#324150" transform="translate(569,199)"/>
<path d="M0 0 C3.625 0.375 3.625 0.375 7 1 C7 1.33 7 1.66 7 2 C10.3 2.33 13.6 2.66 17 3 C17 3.33 17 3.66 17 4 C14.95863605 4.05451714 12.91684144 4.09302485 10.875 4.125 C9.16957031 4.15980469 9.16957031 4.15980469 7.4296875 4.1953125 C3.94242233 3.99672109 1.2446138 3.2524801 -2 2 C-1.34 1.34 -0.68 0.68 0 0 Z " fill="#75BC9C" transform="translate(266,210)"/>
<path d="M0 0 C0.66 0 1.32 0 2 0 C2.33 2.31 2.66 4.62 3 7 C2.01 7.33 1.02 7.66 0 8 C-1.74627478 5.38058783 -2.38722388 3.96175123 -3 1 C-2.01 1.495 -2.01 1.495 -1 2 C-0.67 1.34 -0.34 0.68 0 0 Z " fill="#A0CE91" transform="translate(115,213)"/>
<path d="M0 0 C3.10011632 2.53645881 4.0575938 5.15184135 5 9 C4.75 11.3125 4.75 11.3125 4 13 C3.01 13.495 3.01 13.495 2 14 C-0.29612756 4.58997722 -0.29612756 4.58997722 0 0 Z " fill="#77BC9B" transform="translate(60,204)"/>
<path d="M0 0 C0.99 0.33 1.98 0.66 3 1 C0.75 3.5625 0.75 3.5625 -2 6 C-4.1875 6 -4.1875 6 -6 5 C-6.66 4.01 -7.32 3.02 -8 2 C-5.36 2 -2.72 2 0 2 C0 1.34 0 0.68 0 0 Z " fill="#7BBAA0" transform="translate(217,174)"/>
<path d="M0 0 C0.33 0 0.66 0 1 0 C0.51679152 6.2054142 -0.33318124 11.99945246 -2 18 C-2.33 18 -2.66 18 -3 18 C-3.02689216 16.52093108 -3.04634621 15.04172517 -3.0625 13.5625 C-3.07410156 12.73878906 -3.08570313 11.91507813 -3.09765625 11.06640625 C-3 9 -3 9 -2 8 C-1.835 6.845 -1.67 5.69 -1.5 4.5 C-1 1 -1 1 0 0 Z " fill="#77B89D" transform="translate(147,202)"/>
<path d="M0 0 C3.57869674 0.19344307 4.80424827 0.80424827 7.375 3.375 C7.91125 4.24125 8.4475 5.1075 9 6 C8.67 6.99 8.34 7.98 8 9 C5 5.25 5 5.25 5 3 C4.34 3 3.68 3 3 3 C2.67 3.66 2.34 4.32 2 5 C1.67 4.01 1.34 3.02 1 2 C0.34 1.67 -0.32 1.34 -1 1 C-0.67 0.67 -0.34 0.34 0 0 Z " fill="#67B99B" transform="translate(284,200)"/>
<path d="M0 0 C4.71551664 2.72452072 7.00453496 4.90047822 9 10 C9 10.66 9 11.32 9 12 C8.01 12 7.02 12 6 12 C5.87625 10.329375 5.87625 10.329375 5.75 8.625 C5.37875 6.830625 5.37875 6.830625 5 5 C3.06616713 3.69934079 3.06616713 3.69934079 1 3 C0.67 2.01 0.34 1.02 0 0 Z " fill="#65AB8E" transform="translate(374,175)"/>
<path d="M0 0 C1.2380014 3.57644848 0.74926071 6.33694766 0 10 C-0.804375 10.12375 -1.60875 10.2475 -2.4375 10.375 C-3.283125 10.58125 -4.12875 10.7875 -5 11 C-5.33 11.66 -5.66 12.32 -6 13 C-6 11.35 -6 9.7 -6 8 C-3.525 8.495 -3.525 8.495 -1 9 C-1.020625 7.700625 -1.04125 6.40125 -1.0625 5.0625 C-1.08399454 3.70834367 -1.07148199 2.35243917 -1 1 C-0.67 0.67 -0.34 0.34 0 0 Z " fill="#2D3946" transform="translate(607,167)"/>
<path d="M0 0 C2.5 0.125 2.5 0.125 3.5 1.125 C3.21269945 3.46444736 2.88063221 5.7989143 2.5 8.125 C2.17 8.125 1.84 8.125 1.5 8.125 C1.5 6.145 1.5 4.165 1.5 2.125 C-0.47536745 2.47286708 -0.47536745 2.47286708 -2.5 3.125 C-2.83 3.785 -3.16 4.445 -3.5 5.125 C-4.16 5.125 -4.82 5.125 -5.5 5.125 C-3.09504132 0.15475207 -3.09504132 0.15475207 0 0 Z " fill="#7EBAA1" transform="translate(95.5,139.875)"/>
<path d="M0 0 C0.33 0 0.66 0 1 0 C1 1.98 1 3.96 1 6 C1.66 6.33 2.32 6.66 3 7 C0.69 7 -1.62 7 -4 7 C-4 5.68 -4 4.36 -4 3 C-2.68 2.67 -1.36 2.34 0 2 C0 1.34 0 0.68 0 0 Z " fill="#8EC07F" transform="translate(92,214)"/>
<path d="M0 0 C0.86625 0.3403125 0.86625 0.3403125 1.75 0.6875 C-1.875 3.6875 -1.875 3.6875 -5.25 3.6875 C-5.25 6.9875 -5.25 10.2875 -5.25 13.6875 C-5.58 13.6875 -5.91 13.6875 -6.25 13.6875 C-6.35815225 11.91800905 -6.43566083 10.14662513 -6.5 8.375 C-6.54640625 7.38886719 -6.5928125 6.40273437 -6.640625 5.38671875 C-6.25 2.6875 -6.25 2.6875 -4.375 0.8125 C-2.25 -0.3125 -2.25 -0.3125 0 0 Z " fill="#8FCBB1" transform="translate(54.25,165.3125)"/>
<path d="M0 0 C0.99 0.33 1.98 0.66 3 1 C3.25 3.25 3.25 3.25 3 6 C1 8.3125 1 8.3125 -1 10 C-1.125 2.25 -1.125 2.25 0 0 Z " fill="#4EA57C" transform="translate(209,188)"/>
<path d="M0 0 C0.91007813 0.00902344 1.82015625 0.01804688 2.7578125 0.02734375 C3.45648438 0.03894531 4.15515625 0.05054688 4.875 0.0625 C5.205 0.7225 5.535 1.3825 5.875 2.0625 C1.5585078 2.82423392 -1.86933453 3.22313604 -6.125 2.0625 C-6.455 2.7225 -6.785 3.3825 -7.125 4.0625 C-7.125 3.0725 -7.125 2.0825 -7.125 1.0625 C-4.60024538 -0.19987731 -2.81299534 -0.03606404 0 0 Z " fill="#6FC7B4" transform="translate(215.125,185.9375)"/>
<path d="M0 0 C0.33 0.66 0.66 1.32 1 2 C0.34 2 -0.32 2 -1 2 C-1.20625 2.78375 -1.4125 3.5675 -1.625 4.375 C-3 7 -3 7 -6.125 8.3125 C-7.07375 8.539375 -8.0225 8.76625 -9 9 C-8.06725891 7.87105124 -7.12859878 6.74699124 -6.1875 5.625 C-5.66542969 4.99851563 -5.14335938 4.37203125 -4.60546875 3.7265625 C-3 2 -3 2 0 0 Z " fill="#545C67" transform="translate(542,178)"/>
<path d="M0 0 C0.66 0.99 1.32 1.98 2 3 C0.625 6.6875 0.625 6.6875 -1 10 C-1.66 9.67 -2.32 9.34 -3 9 C-2.5020163 5.26512223 -2.12508244 3.18762365 0 0 Z " fill="#72B596" transform="translate(177,175)"/>
<path d="M0 0 C-0.75 1.9375 -0.75 1.9375 -2 4 C-4.125 4.75 -4.125 4.75 -6 5 C-6.33 3.35 -6.66 1.7 -7 0 C-4.3333581 -1.33332095 -2.83319697 -0.67102033 0 0 Z M-4 0 C-4 0.66 -4 1.32 -4 2 C-3.34 1.67 -2.68 1.34 -2 1 C-2.66 0.67 -3.32 0.34 -4 0 Z " fill="#6DB995" transform="translate(82,172)"/>
<path d="M0 0 C1.4540625 0.0309375 1.4540625 0.0309375 2.9375 0.0625 C1.6175 1.3825 0.2975 2.7025 -1.0625 4.0625 C-1.3925 3.4025 -1.7225 2.7425 -2.0625 2.0625 C-2.3925 4.7025 -2.7225 7.3425 -3.0625 10.0625 C-4.0525 9.7325 -5.0425 9.4025 -6.0625 9.0625 C-5.4025 9.0625 -4.7425 9.0625 -4.0625 9.0625 C-4.083125 7.763125 -4.10375 6.46375 -4.125 5.125 C-4.14649454 3.77084367 -4.13398199 2.41493917 -4.0625 1.0625 C-3.0625 0.0625 -3.0625 0.0625 0 0 Z " fill="#5D6975" transform="translate(609.0625,165.9375)"/>
<path d="M0 0 C0.33 0.99 0.66 1.98 1 3 C-0.5625 5 -0.5625 5 -3 7 C-6.75 7.25 -6.75 7.25 -10 7 C-10 6.67 -10 6.34 -10 6 C-8.35 5.67 -6.7 5.34 -5 5 C-4.67 3.68 -4.34 2.36 -4 1 C-3.34 1.66 -2.68 2.32 -2 3 C-1.34 2.01 -0.68 1.02 0 0 Z " fill="#69B592" transform="translate(143,221)"/>
<path d="M0 0 C0.33 0 0.66 0 1 0 C1.63019694 8.19256018 1.63019694 8.19256018 -1 11.5625 C-1.66 12.036875 -2.32 12.51125 -3 13 C-3.99 12.67 -4.98 12.34 -6 12 C-5.34 11.34 -4.68 10.68 -4 10 C-3.01 10 -2.02 10 -1 10 C-0.67 6.7 -0.34 3.4 0 0 Z " fill="#A9D0BE" transform="translate(221,198)"/>
<path d="M0 0 C2 1 2 1 3.3125 2.4375 C5.36361634 4.33668179 7.38239202 5.0802999 10 6 C8 7 8 7 5.125 6.3125 C1.91161068 4.96287649 0.25963405 3.60727005 -2 1 C-1.34 0.67 -0.68 0.34 0 0 Z " fill="#6AB594" transform="translate(181,204)"/>
<path d="M0 0 C1.32 0.33 2.64 0.66 4 1 C3.0409375 1.556875 3.0409375 1.556875 2.0625 2.125 C-0.63858072 4.58052793 -0.68407005 6.44578805 -1 10 C-1.99 9.34 -2.98 8.68 -4 8 C-2.87548273 5.0280615 -1.77706209 2.66559313 0 0 Z " fill="#76BB99" transform="translate(243,186)"/>
<path d="M0 0 C2.475 0.495 2.475 0.495 5 1 C5 2.98 5 4.96 5 7 C3.68 7 2.36 7 1 7 C0.67 4.69 0.34 2.38 0 0 Z " fill="#8ABE7A" transform="translate(125,206)"/>
<path d="M0 0 C2.64 0.33 5.28 0.66 8 1 C7.0409375 1.433125 7.0409375 1.433125 6.0625 1.875 C3.84793921 2.82823451 3.84793921 2.82823451 3 5 C3.66 5.33 4.32 5.66 5 6 C4.01 6 3.02 6 2 6 C1.67 6.66 1.34 7.32 1 8 C-0.35439668 5.29120665 -0.06501451 2.99066732 0 0 Z " fill="#8DB880" transform="translate(78,205)"/>
<path d="M0 0 C1.32 0 2.64 0 4 0 C4 0.99 4 1.98 4 3 C5.98 3 7.96 3 10 3 C10 3.33 10 3.66 10 4 C1.42857143 4.28571429 1.42857143 4.28571429 -2 2 C-1.34 1.34 -0.68 0.68 0 0 Z " fill="#5BB08A" transform="translate(285,194)"/>
<path d="M0 0 C0.66 0 1.32 0 2 0 C2 0.66 2 1.32 2 2 C2.99 2.33 3.98 2.66 5 3 C5.12375 4.134375 5.2475 5.26875 5.375 6.4375 C5.684375 8.2009375 5.684375 8.2009375 6 10 C6.66 10.33 7.32 10.66 8 11 C7.01 11 6.02 11 5 11 C3.35 7.37 1.7 3.74 0 0 Z " fill="#81C1A0" transform="translate(112,152)"/>
<path d="M0 0 C0.99 0.33 1.98 0.66 3 1 C2.67 1.66 2.34 2.32 2 3 C0.66666667 3.33333333 -0.66666667 3.66666667 -2 4 C-2.33 4.66 -2.66 5.32 -3 6 C-3.99 6 -4.98 6 -6 6 C-6 4.35 -6 2.7 -6 1 C-5.34 1.66 -4.68 2.32 -4 3 C-3.401875 2.484375 -2.80375 1.96875 -2.1875 1.4375 C-1.465625 0.963125 -0.74375 0.48875 0 0 Z " fill="#7EC1A1" transform="translate(245,174)"/>
<path d="M0 0 C3.91402949 1.26941497 5.79072873 2.51167694 8 6 C4.84918025 6 3.58152302 5.72101535 1 4 C0.25 1.875 0.25 1.875 0 0 Z " fill="#656E77" transform="translate(464,175)"/>
<path d="M0 0 C0.66 0 1.32 0 2 0 C1.67 1.65 1.34 3.3 1 5 C-0.98 5.33 -2.96 5.66 -5 6 C-5 5.34 -5 4.68 -5 4 C-3.68 4 -2.36 4 -1 4 C-0.67 2.68 -0.34 1.36 0 0 Z " fill="#7CBE7D" transform="translate(138,206)"/>
<path d="M0 0 C2.97 0.33 5.94 0.66 9 1 C8.67 1.66 8.34 2.32 8 3 C6.824375 2.9690625 6.824375 2.9690625 5.625 2.9375 C3.01885039 2.81315937 3.01885039 2.81315937 1 4 C0.34 3.67 -0.32 3.34 -1 3 C-0.67 2.01 -0.34 1.02 0 0 Z " fill="#313E4A" transform="translate(573,204)"/>
<path d="M0 0 C0.99 0.33 1.98 0.66 3 1 C3.94921875 3.06640625 3.94921875 3.06640625 4.6875 5.5625 C4.93886719 6.38878906 5.19023437 7.21507812 5.44921875 8.06640625 C5.63097656 8.70449219 5.81273437 9.34257812 6 10 C5.34 10 4.68 10 4 10 C3.32845067 8.71086513 2.66291141 7.41859796 2 6.125 C1.62875 5.40570313 1.2575 4.68640625 0.875 3.9453125 C0 2 0 2 0 0 Z " fill="#7FBFA3" transform="translate(298,198)"/>
<path d="M0 0 C0.33 1.32 0.66 2.64 1 4 C-0.98 4.99 -0.98 4.99 -3 6 C-3.33 4.35 -3.66 2.7 -4 1 C-2.68 0.67 -1.36 0.34 0 0 Z " fill="#8EC780" transform="translate(132,199)"/>
<path d="M0 0 C0.66 0.99 1.32 1.98 2 3 C5.56769552 3.73606499 5.56769552 3.73606499 9 4 C9 4.33 9 4.66 9 5 C4.71 5 0.42 5 -4 5 C-3.34 4.01 -2.68 3.02 -2 2 C-1.34 2 -0.68 2 0 2 C0 1.34 0 0.68 0 0 Z " fill="#67B492" transform="translate(330,193)"/>
<path d="M0 0 C0.66 0 1.32 0 2 0 C2.268125 0.969375 2.53625 1.93875 2.8125 2.9375 C3.204375 3.948125 3.59625 4.95875 4 6 C4.99 6.33 5.98 6.66 7 7 C6.67 7.66 6.34 8.32 6 9 C2.83884224 7.63016497 2.0072908 7.0109362 0 4 C0 2.68 0 1.36 0 0 Z " fill="#76BB9F" transform="translate(63,219)"/>
<path d="M0 0 C1.32 0 2.64 0 4 0 C4 0.66 4 1.32 4 2 C4.66 2.33 5.32 2.66 6 3 C5 4 5 4 2.93359375 4.09765625 C2.10988281 4.08605469 1.28617187 4.07445312 0.4375 4.0625 C-0.38878906 4.05347656 -1.21507813 4.04445312 -2.06640625 4.03515625 C-2.70449219 4.02355469 -3.34257813 4.01195312 -4 4 C-4 3.67 -4 3.34 -4 3 C-2.35 3 -0.7 3 1 3 C0.67 2.01 0.34 1.02 0 0 Z " fill="#90CC92" transform="translate(76,218)"/>
<path d="M0 0 C2.0625 1.75 2.0625 1.75 4 4 C3.75 6.25 3.75 6.25 3 8 C2.01 8 1.02 8 0 8 C0.66 7.67 1.32 7.34 2 7 C2 6.01 2 5.02 2 4 C1.01 3.67 0.02 3.34 -1 3 C-0.67 2.01 -0.34 1.02 0 0 Z " fill="#70BDA4" transform="translate(332,202)"/>
<path d="M0 0 C0.99 0.66 1.98 1.32 3 2 C2.67 2.99 2.34 3.98 2 5 C0.02 5 -1.96 5 -4 5 C-3 2 -3 2 0 0 Z " fill="#5AB296" transform="translate(329,199)"/>
<path d="M0 0 C0.66 0.33 1.32 0.66 2 1 C2 1.66 2 2.32 2 3 C2.66 3 3.32 3 4 3 C4 3.99 4 4.98 4 6 C1.36 6 -1.28 6 -4 6 C-2.68 5.34 -1.36 4.68 0 4 C0 2.68 0 1.36 0 0 Z " fill="#9DD395" transform="translate(111,191)"/>
<path d="M0 0 C1.32 0.33 2.64 0.66 4 1 C4 2.65 4 4.3 4 6 C0.7 6 -2.6 6 -6 6 C-6 5.67 -6 5.34 -6 5 C-3.03 5 -0.06 5 3 5 C2.01 3.35 1.02 1.7 0 0 Z " fill="#A9B1B8" transform="translate(460,184)"/>
<path d="M0 0 C3.96 0 7.92 0 12 0 C12.33 1.32 12.66 2.64 13 4 C12.43796875 3.67257813 11.8759375 3.34515625 11.296875 3.0078125 C8.73140036 1.88214506 7.03157723 1.7931889 4.25 1.875 C3.05117188 1.90207031 3.05117188 1.90207031 1.828125 1.9296875 C0.92320312 1.96449219 0.92320312 1.96449219 0 2 C0 1.34 0 0.68 0 0 Z " fill="#89CCB4" transform="translate(270,184)"/>
<path d="M0 0 C0.99 0 1.98 0 3 0 C3 1.65 3 3.3 3 5 C3.66 5.33 4.32 5.66 5 6 C3.35 6 1.7 6 0 6 C0 4.02 0 2.04 0 0 Z " fill="#9DC394" transform="translate(70,183)"/>
<path d="M0 0 C1.65 0 3.3 0 5 0 C5 3.63 5 7.26 5 11 C4.34 11 3.68 11 3 11 C1.68776504 7.06329512 2.75703744 4.87511856 4 1 C2.68 0.67 1.36 0.34 0 0 Z " fill="#579C80" transform="translate(248,174)"/>
<path d="M0 0 C2.375 1.25 2.375 1.25 3.375 4.25 C2.055 4.58 0.735 4.91 -0.625 5.25 C-0.955 4.26 -1.285 3.27 -1.625 2.25 C-3.62516466 1.04117904 -3.62516466 1.04117904 -5.625 0.25 C-2.625 -0.75 -2.625 -0.75 0 0 Z " fill="#5DBE92" transform="translate(132.625,173.75)"/>
<path d="M0 0 C2 1.375 2 1.375 4 3 C4 3.66 4 4.32 4 5 C2.02 5.33 0.04 5.66 -2 6 C-2 4.35 -2 2.7 -2 1 C-1.34 0.67 -0.68 0.34 0 0 Z " fill="#4BB688" transform="translate(64,201)"/>
<path d="M0 0 C0.33 0 0.66 0 1 0 C1.25 5.625 1.25 5.625 -1 9 C-1.99 8.67 -2.98 8.34 -4 8 C-3.34 7.34 -2.68 6.68 -2 6 C-1.28591666 4.01643517 -0.61382258 2.01684563 0 0 Z " fill="#95BC8A" transform="translate(136,182)"/>
<path d="M0 0 C0.66 1.32 1.32 2.64 2 4 C1.34 4.66 0.68 5.32 0 6 C-1.32 6 -2.64 6 -4 6 C-2.84826645 3.53199953 -1.95216435 1.95216435 0 0 Z " fill="#64B692" transform="translate(304,179)"/>
<path d="M0 0 C0 0.66 0 1.32 0 2 C-0.99 2 -1.98 2 -3 2 C-3.66 3.32 -4.32 4.64 -5 6 C-5.99 6 -6.98 6 -8 6 C-6.72879117 2.18637351 -4.19078006 0 0 0 Z " fill="#8BC3A8" transform="translate(268,175)"/>
<path d="M0 0 C2 1 2 1 2 1 Z M0 1 C0 1.66 0 2.32 0 3 C-1.98 3.33 -3.96 3.66 -6 4 C-6.33 3.34 -6.66 2.68 -7 2 C-3.375 -0.125 -3.375 -0.125 0 1 Z " fill="#2E3C47" transform="translate(570,178)"/>
<path d="M0 0 C0.90105469 0.00902344 1.80210937 0.01804688 2.73046875 0.02734375 C3.41753906 0.03894531 4.10460937 0.05054688 4.8125 0.0625 C4.8125 0.3925 4.8125 0.7225 4.8125 1.0625 C4.20921875 1.11148438 3.6059375 1.16046875 2.984375 1.2109375 C1.78554687 1.32308594 1.78554687 1.32308594 0.5625 1.4375 C-0.62085938 1.54191406 -0.62085938 1.54191406 -1.828125 1.6484375 C-4.273377 2.07757113 -6.03586903 2.84850638 -8.1875 4.0625 C-8.1875 3.0725 -8.1875 2.0825 -8.1875 1.0625 C-5.17259443 0.05753148 -3.14568308 -0.04085303 0 0 Z " fill="#7FAD96" transform="translate(199.1875,173.9375)"/>
<path d="M0 0 C0.99 0.66 1.98 1.32 3 2 C2.01 2.495 2.01 2.495 1 3 C0.59270772 5.32156597 0.25561323 7.6568787 0 10 C-0.66 10 -1.32 10 -2 10 C-1.85950482 8.52031676 -1.71245174 7.04125484 -1.5625 5.5625 C-1.48128906 4.73878906 -1.40007812 3.91507813 -1.31640625 3.06640625 C-1 1 -1 1 0 0 Z " fill="#5DAC87" transform="translate(142,196)"/>
<path d="M0 0 C-0.66 0 -1.32 0 -2 0 C-2.66 1.98 -3.32 3.96 -4 6 C-4.99 4.68 -5.98 3.36 -7 2 C-5.26578631 -1.46842738 -3.40984787 -1.13661596 0 0 Z " fill="#4A5969" transform="translate(495,189)"/>
<path d="M0 0 C0.99 0.66 1.98 1.32 3 2 C2.67 2.66 2.34 3.32 2 4 C0.02 4 -1.96 4 -4 4 C-3.67 3.01 -3.34 2.02 -3 1 C-2.01 0.67 -1.02 0.34 0 0 Z " fill="#2E3E4E" transform="translate(553,206)"/>
<path d="M0 0 C-2 2 -2 2 -4.0625 2.5 C-4.701875 2.665 -5.34125 2.83 -6 3 C-6.33 3.66 -6.66 4.32 -7 5 C-7 3.68 -7 2.36 -7 1 C-4.53721199 -0.231394 -2.7204945 -0.07159196 0 0 Z " fill="#616C72" transform="translate(452,190)"/>
<path d="M0 0 C1.32 0 2.64 0 4 0 C3.814375 0.598125 3.62875 1.19625 3.4375 1.8125 C2.77906313 4.16408762 2.77906313 4.16408762 4 7 C3.01 7 2.02 7 1 7 C1.020625 6.21625 1.04125 5.4325 1.0625 4.625 C1.18684063 2.01885039 1.18684063 2.01885039 0 0 Z " fill="#A4C48F" transform="translate(93,190)"/>
<path d="M0 0 C0.99 0 1.98 0 3 0 C2.690625 0.53625 2.38125 1.0725 2.0625 1.625 C0.82172561 4.3984957 0.4090325 7.00042837 0 10 C-0.33 10 -0.66 10 -1 10 C-1.125 2.25 -1.125 2.25 0 0 Z " fill="#66AD8D" transform="translate(357,185)"/>
<path d="M0 0 C-0.3125 2.375 -0.3125 2.375 -1 5 C-1.99 5.66 -2.98 6.32 -4 7 C-4 5.02 -4 3.04 -4 1 C-2 0 -2 0 0 0 Z " fill="#69717B" transform="translate(431,182)"/>
<path d="M0 0 C-0.99 0.33 -1.98 0.66 -3 1 C-3 1.99 -3 2.98 -3 4 C-4.65 3.67 -6.3 3.34 -8 3 C-5.53387212 -0.1151089 -3.89156016 -0.31553191 0 0 Z " fill="#596670" transform="translate(585,174)"/>
<path d="M0 0 C0.66 0.99 1.32 1.98 2 3 C-1.90028225 5.60018816 -5.47434569 5.15085514 -10 5 C-10 4.67 -10 4.34 -10 4 C-9.04287109 3.81824219 -9.04287109 3.81824219 -8.06640625 3.6328125 C-7.24011719 3.46523437 -6.41382812 3.29765625 -5.5625 3.125 C-4.73878906 2.96257812 -3.91507812 2.80015625 -3.06640625 2.6328125 C-2.38449219 2.42398438 -1.70257813 2.21515625 -1 2 C-0.67 1.34 -0.34 0.68 0 0 Z " fill="#62B28D" transform="translate(80,162)"/>
</svg>
